<?xml version="1.0" encoding="UTF-8" standalone="no"?>
<!-- Created with Inkscape (http://www.inkscape.org/) -->
<svg
   xmlns:dc="http://purl.org/dc/elements/1.1/"
   xmlns:cc="http://creativecommons.org/ns#"
   xmlns:rdf="http://www.w3.org/1999/02/22-rdf-syntax-ns#"
   xmlns:svg="http://www.w3.org/2000/svg"
   xmlns="http://www.w3.org/2000/svg"
   xmlns:sodipodi="http://sodipodi.sourceforge.net/DTD/sodipodi-0.dtd"
   xmlns:inkscape="http://www.inkscape.org/namespaces/inkscape"
   width="219.99997"
   height="221.15794"
   id="svg2212"
   sodipodi:version="0.32"
   inkscape:version="0.46"
   sodipodi:docbase="/home/lcordier/trac-hacks/sixhatsmacro/0.11/sixhats/htdocs/img/source"
   sodipodi:docname="fedoras.svg"
   inkscape:output_extension="org.inkscape.output.svg.inkscape"
   version="1.0">
  <defs
     id="defs2214">
    <inkscape:perspective
       sodipodi:type="inkscape:persp3d"
       inkscape:vp_x="0 : 110.57897 : 1"
       inkscape:vp_y="0 : 1000 : 0"
       inkscape:vp_z="219.99997 : 110.57897 : 1"
       inkscape:persp3d-origin="109.99998 : 73.719315 : 1"
       id="perspective49" />
  </defs>
  <sodipodi:namedview
     id="base"
     pagecolor="#ffffff"
     bordercolor="#666666"
     borderopacity="1.0"
     gridtolerance="10000"
     guidetolerance="10"
     objecttolerance="10"
     inkscape:pageopacity="0.0"
     inkscape:pageshadow="2"
     inkscape:zoom="1.979899"
     inkscape:cx="119.1884"
     inkscape:cy="114.15368"
     inkscape:document-units="px"
     inkscape:current-layer="layer1"
     inkscape:window-width="1014"
     inkscape:window-height="744"
     inkscape:window-x="1536"
     inkscape:window-y="0"
     showgrid="false" />
  <metadata
     id="metadata2217">
    <rdf:RDF>
      <cc:Work
         rdf:about="">
        <dc:format>image/svg+xml</dc:format>
        <dc:type
           rdf:resource="http://purl.org/dc/dcmitype/StillImage" />
        <dc:title>Fedoras</dc:title>
        <dc:date>2008-06-01</dc:date>
        <dc:creator>
          <cc:Agent>
            <dc:title>Louis Cordier &lt;lcordier@gmail.com&gt;</dc:title>
          </cc:Agent>
        </dc:creator>
        <dc:rights>
          <cc:Agent>
            <dc:title>Louis Cordier</dc:title>
          </cc:Agent>
        </dc:rights>
        <dc:publisher>
          <cc:Agent>
            <dc:title>Louis Cordier</dc:title>
          </cc:Agent>
        </dc:publisher>
        <dc:identifier></dc:identifier>
        <dc:source>http://en.wikipedia.org/wiki/Image:Fedora_line_drawing.svg</dc:source>
        <dc:subject>
          <rdf:Bag>
            <rdf:li>six thinking hats</rdf:li>
            <rdf:li>fedora</rdf:li>
          </rdf:Bag>
        </dc:subject>
        <cc:license
           rdf:resource="http://creativecommons.org/licenses/by/3.0/" />
        <dc:description>Six Thinking Hats as fedoras.</dc:description>
      </cc:Work>
      <cc:License
         rdf:about="http://creativecommons.org/licenses/by/3.0/">
        <cc:permits
           rdf:resource="http://creativecommons.org/ns#Reproduction" />
        <cc:permits
           rdf:resource="http://creativecommons.org/ns#Distribution" />
        <cc:requires
           rdf:resource="http://creativecommons.org/ns#Notice" />
        <cc:requires
           rdf:resource="http://creativecommons.org/ns#Attribution" />
        <cc:permits
           rdf:resource="http://creativecommons.org/ns#DerivativeWorks" />
      </cc:License>
    </rdf:RDF>
  </metadata>
  <g
     inkscape:label="Layer 1"
     inkscape:groupmode="layer"
     id="layer1"
     transform="translate(53.210744,-176.02076)">
    <g
       id="g2256"
       transform="matrix(0.2786203,0,0,0.2786203,-54.908517,170.04684)">
      <path
         sodipodi:nodetypes="ccssssssssssssssssssssssccc"
         id="path2265"
         d="M 327.24531,232.19363 L 319.37265,231.53973 C 315.04269,231.18008 307.35524,230.46151 302.28941,229.94291 C 280.60534,227.72306 267.30027,229.94935 242,240.03094 C 191.08818,260.31815 140.62482,275.72492 106.5,281.3999 C 81.580805,285.54398 42.498719,287.37261 31.099278,284.92787 C 25.445467,283.71535 11.893957,275.14305 8.6060047,270.69927 C 7.0763169,268.63184 6.4405154,266.01357 6.1776802,260.69927 C 5.878328,254.64662 6.2942281,252.20871 8.7889828,245.39241 C 12.147137,236.21708 17.037798,228.08405 23.249212,221.34546 C 30.73565,213.22364 61.384406,191.44776 69.195081,188.70102 C 70.668685,188.1828 70.27136,186.88947 66.154137,178.80246 C 60.409033,167.51798 55.457201,152.92214 52.902067,139.74114 C 47.216412,110.41095 54.449088,96.284443 85.928044,75.236428 C 105.41397,62.207402 118.63876,56.142922 165,38.976476 C 179.575,33.579706 194.2,28.037107 197.5,26.65959 C 214.50808,19.559919 231.23659,19.704335 247.77501,27.09361 C 257.67758,31.518023 273.84957,42.711724 281.58593,50.49638 C 292.56053,61.539482 299.4908,72.763819 310.01546,96.541165 C 315.71363,109.4145 324.22901,134.14214 325.54665,141.64189 C 326.71892,148.31426 328.34479,149.67959 344.46998,157.53284 C 368.18267,169.08133 379.64773,178.63782 390.01969,195.5 C 398.2251,208.83991 400.13622,212.91975 400.68914,218.27704 C 401.17329,222.96795 400.93495,223.92386 398.58484,226.71681 C 394.14796,231.98973 391.38311,232.40109 360.03087,232.45293 L 331.56174,232.5 L 327.24531,232.19363 z "
         style="fill:#000000" />
      <path
         id="path2267"
         d="M 221.5,26.40625 C 214.56903,26.440294 207.78928,28.043176 198.71875,31.53125 C 193.64708,33.481556 177.96063,39.307487 163.875,44.5 C 121.15305,60.248981 106.69871,67.003044 87,80.375 C 59.359585,99.137976 53.152466,111.08191 57.5,137.03125 C 60.03252,152.14724 65.328992,167.43038 72.5,180.25 L 75.15625,185 L 80.34375,184.5 C 83.184605,184.22084 95.85,182.83469 108.5,181.4375 C 181.58155,173.36569 223.67286,164.14031 262.90625,147.59375 C 267.40842,145.69498 278.34289,140.02024 287.1875,134.96875 C 296.0321,129.91725 305.69947,124.69645 308.6875,123.375 C 314.91704,120.62 314.89145,121.82854 309.3125,107.5 C 300.6863,85.345121 290.17421,66.755045 280,55.65625 L 274.625,49.8125 L 272.84375,53.3125 C 270.38168,58.111572 266.68602,60.766064 261.375,61.5625 C 258.91096,61.932006 248.44544,61.823119 238.125,61.3125 C 215.13951,60.17526 206.22855,60.889701 187.8125,65.375 C 164.3636,71.086065 143.25565,78.680779 109.5,93.53125 C 79.088574,106.91045 75.907663,108.18189 74.375,107.59375 C 71.925627,106.65384 72.908003,104.01395 76.25,102.53125 C 98.689561,92.575827 131.29079,78.581268 138,76.03125 C 143.35332,73.996577 148.53608,71.124586 152,68.28125 C 166.17026,56.649671 183.80986,51.660853 202.5,54 C 207.45,54.619511 215.325,55.304379 220,55.5 C 224.675,55.69562 235.47346,56.149565 244,56.53125 C 261.56248,57.317423 266.16295,56.351507 268.03125,51.4375 C 268.78285,49.460662 269.55731,48.895807 271.03125,49.28125 C 274.33707,50.145742 272.32617,48.329079 262.53125,41.5 C 250.23459,32.926704 241.97676,29.185137 231.28125,27.3125 C 227.83849,26.70972 224.65044,26.390776 221.5,26.40625 z M 190.46875,58.53125 C 190.22429,58.541877 189.91109,58.577685 189.5,58.625 C 180.84877,59.620716 172.12307,61.884339 167.21875,64.4375 C 161.70041,67.310305 161.99749,67.635835 168.125,65.4375 C 170.53165,64.57408 177.45,62.538644 183.5,60.9375 C 189.83079,59.262044 192.17996,58.456863 190.46875,58.53125 z M 327.71875,155 C 327.54394,155 324.93482,157.35852 321.9375,160.25 C 310.29391,171.4824 289.73966,182.86213 260,194.53125 C 194.40015,220.27103 134.15588,236.67427 92.5,240.125 C 82.143182,240.98294 78.229038,241.68727 77.40625,242.8125 C 76.733688,243.73228 75.616425,244.06067 74.5625,243.65625 C 73.056987,243.07853 72.912307,242.14602 73.5,236.75 C 73.874026,233.31582 74.814157,227.65913 75.59375,224.1875 C 76.373343,220.71588 77,216.41115 77,214.625 C 77,210.92702 73.181348,194.92103 72,193.65625 C 70.516583,192.06806 59.886938,198.65019 41.78125,212.3125 C 35.333968,217.17754 28.007011,223.43035 25.5,226.21875 C 16.605866,236.11116 11,249.19409 11,260.09375 C 11,267.2127 13.093485,270.02108 22.75,275.84375 C 27.595897,278.76574 31.344309,280.19623 36,280.90625 C 42.990483,281.97233 63.317361,281.53932 79.5,279.96875 C 122.72702,275.77345 174.14167,261.66196 238.03125,236.46875 C 268.45823,224.47064 278.14301,222.90833 306.5,225.53125 C 319.53212,226.73666 335.59073,227.3365 357.65625,227.40625 C 388.84832,227.50484 389.91242,227.44134 392.65625,225.40625 C 397.9554,221.47594 397.12919,216.93466 388.3125,202.0625 C 376.89659,182.80592 367.12344,174.22595 343.28125,162.5 C 334.90339,158.37963 327.89355,155 327.71875,155 z "
         style="fill:#e23d28;fill-opacity:1" />
      <path
         id="path2269"
         d="M 49.328737,257.54224 C 42.422497,254.53807 42.211959,245.64309 48.903752,239.5871 C 51.728267,237.03095 52.882639,238.41342 50.295573,241.25394 C 44.934791,247.13992 44.55849,252.11768 49.25,255.08493 C 52.089885,256.88108 53.541061,257.06777 60.75,256.5644 C 69.084641,255.98242 72.17366,257.21374 65.25,258.35815 C 59.209291,259.35662 52.737328,259.02495 49.328737,257.54224 z "
         style="fill:#2b0000" />
      <path
         id="path2271"
         d="M 95.144045,233.97334 C 134.86476,230.03552 199.20926,212.30958 256.52342,189.51577 C 289.92859,176.23055 315.95683,161.34118 320.15463,153.11575 C 321.74209,150.00518 321.69088,149.42231 318.89314,138.75862 C 317.28927,132.6454 315.76647,127.43314 315.50914,127.1758 C 314.94246,126.60913 296.91965,135.85034 288.26651,141.14447 C 268.90363,152.99101 235.95143,165.53715 207.5,171.89532 C 175.91491,178.95378 119.15706,187.33469 87.75,189.5777 C 82.3875,189.96067 78.00902,190.54986 78.020044,190.88701 C 78.031068,191.22415 79.147048,195.775 80.5,201 C 83.342397,211.97713 83.525448,216.19448 81.520001,224.5 C 80.723184,227.8 80.055213,231.5125 80.035622,232.75 C 79.99352,235.40928 80.360185,235.43897 95.144045,233.97334 z "
         style="fill:#a0a0a0;fill-opacity:1" />
      <path
         id="path2273"
         d="M 234.5,109.07308 C 210.85322,103.60601 198.29663,98.73515 194.1016,93.402033 C 192.85733,91.820207 192,89.273628 192,87.159557 C 192,82.609379 198.81798,67.808874 200.729,68.210605 C 202.4395,68.570183 202.32333,69.083898 198.85443,76.5 C 194.57267,85.653887 194.34633,88.069706 197.42737,91.731312 C 201.70543,96.815506 220.10091,103.1234 244,107.70128 C 246.75243,108.22851 248.5,109.10113 248.5,109.94829 C 248.5,112.10807 247.30387,112.0333 234.5,109.07308 z "
         style="fill:#2b0000" />
      <path
         id="path2275"
         d="M 263.53878,105.06274 C 263.16722,104.46155 264.70631,101.16399 266.95898,97.734833 C 272.65607,89.062337 272.99127,87.216221 269.40184,84.280616 C 267.80583,82.97532 263.4625,80.472286 259.75,78.718318 C 253.4191,75.727288 251.36907,73.975589 254.25,74.018709 C 254.9375,74.028999 259.09484,75.963056 263.48854,78.316614 C 272.78686,83.297409 275.00861,86.150798 273.12649,90.694618 C 270.80607,96.296608 264.22048,106.16576 263.53878,105.06274 z "
         style="fill:#2b0000" />
    </g>
    <g
       id="g2277"
       transform="matrix(0.2786203,0,0,0.2786203,-54.908517,243.76619)">
      <path
         sodipodi:nodetypes="ccssssssssssssssssssssssccc"
         id="path2286"
         d="M 327.24531,232.19363 L 319.37265,231.53973 C 315.04269,231.18008 307.35524,230.46151 302.28941,229.94291 C 280.60534,227.72306 267.30027,229.94935 242,240.03094 C 191.08818,260.31815 140.62482,275.72492 106.5,281.3999 C 81.580805,285.54398 42.498719,287.37261 31.099278,284.92787 C 25.445467,283.71535 11.893957,275.14305 8.6060047,270.69927 C 7.0763169,268.63184 6.4405154,266.01357 6.1776802,260.69927 C 5.878328,254.64662 6.2942281,252.20871 8.7889828,245.39241 C 12.147137,236.21708 17.037798,228.08405 23.249212,221.34546 C 30.73565,213.22364 61.384406,191.44776 69.195081,188.70102 C 70.668685,188.1828 70.27136,186.88947 66.154137,178.80246 C 60.409033,167.51798 55.457201,152.92214 52.902067,139.74114 C 47.216412,110.41095 54.449088,96.284443 85.928044,75.236428 C 105.41397,62.207402 118.63876,56.142922 165,38.976476 C 179.575,33.579706 194.2,28.037107 197.5,26.65959 C 214.50808,19.559919 231.23659,19.704335 247.77501,27.09361 C 257.67758,31.518023 273.84957,42.711724 281.58593,50.49638 C 292.56053,61.539482 299.4908,72.763819 310.01546,96.541165 C 315.71363,109.4145 324.22901,134.14214 325.54665,141.64189 C 326.71892,148.31426 328.34479,149.67959 344.46998,157.53284 C 368.18267,169.08133 379.64773,178.63782 390.01969,195.5 C 398.2251,208.83991 400.13622,212.91975 400.68914,218.27704 C 401.17329,222.96795 400.93495,223.92386 398.58484,226.71681 C 394.14796,231.98973 391.38311,232.40109 360.03087,232.45293 L 331.56174,232.5 L 327.24531,232.19363 z "
         style="fill:#000000" />
      <path
         id="path2288"
         d="M 221.5,26.40625 C 214.56903,26.440294 207.78928,28.043176 198.71875,31.53125 C 193.64708,33.481556 177.96063,39.307487 163.875,44.5 C 121.15305,60.248981 106.69871,67.003044 87,80.375 C 59.359585,99.137976 53.152466,111.08191 57.5,137.03125 C 60.03252,152.14724 65.328992,167.43038 72.5,180.25 L 75.15625,185 L 80.34375,184.5 C 83.184605,184.22084 95.85,182.83469 108.5,181.4375 C 181.58155,173.36569 223.67286,164.14031 262.90625,147.59375 C 267.40842,145.69498 278.34289,140.02024 287.1875,134.96875 C 296.0321,129.91725 305.69947,124.69645 308.6875,123.375 C 314.91704,120.62 314.89145,121.82854 309.3125,107.5 C 300.6863,85.345121 290.17421,66.755045 280,55.65625 L 274.625,49.8125 L 272.84375,53.3125 C 270.38168,58.111572 266.68602,60.766064 261.375,61.5625 C 258.91096,61.932006 248.44544,61.823119 238.125,61.3125 C 215.13951,60.17526 206.22855,60.889701 187.8125,65.375 C 164.3636,71.086065 143.25565,78.680779 109.5,93.53125 C 79.088574,106.91045 75.907663,108.18189 74.375,107.59375 C 71.925627,106.65384 72.908003,104.01395 76.25,102.53125 C 98.689561,92.575827 131.29079,78.581268 138,76.03125 C 143.35332,73.996577 148.53608,71.124586 152,68.28125 C 166.17026,56.649671 183.80986,51.660853 202.5,54 C 207.45,54.619511 215.325,55.304379 220,55.5 C 224.675,55.69562 235.47346,56.149565 244,56.53125 C 261.56248,57.317423 266.16295,56.351507 268.03125,51.4375 C 268.78285,49.460662 269.55731,48.895807 271.03125,49.28125 C 274.33707,50.145742 272.32617,48.329079 262.53125,41.5 C 250.23459,32.926704 241.97676,29.185137 231.28125,27.3125 C 227.83849,26.70972 224.65044,26.390776 221.5,26.40625 z M 190.46875,58.53125 C 190.22429,58.541877 189.91109,58.577685 189.5,58.625 C 180.84877,59.620716 172.12307,61.884339 167.21875,64.4375 C 161.70041,67.310305 161.99749,67.635835 168.125,65.4375 C 170.53165,64.57408 177.45,62.538644 183.5,60.9375 C 189.83079,59.262044 192.17996,58.456863 190.46875,58.53125 z M 327.71875,155 C 327.54394,155 324.93482,157.35852 321.9375,160.25 C 310.29391,171.4824 289.73966,182.86213 260,194.53125 C 194.40015,220.27103 134.15588,236.67427 92.5,240.125 C 82.143182,240.98294 78.229038,241.68727 77.40625,242.8125 C 76.733688,243.73228 75.616425,244.06067 74.5625,243.65625 C 73.056987,243.07853 72.912307,242.14602 73.5,236.75 C 73.874026,233.31582 74.814157,227.65913 75.59375,224.1875 C 76.373343,220.71588 77,216.41115 77,214.625 C 77,210.92702 73.181348,194.92103 72,193.65625 C 70.516583,192.06806 59.886938,198.65019 41.78125,212.3125 C 35.333968,217.17754 28.007011,223.43035 25.5,226.21875 C 16.605866,236.11116 11,249.19409 11,260.09375 C 11,267.2127 13.093485,270.02108 22.75,275.84375 C 27.595897,278.76574 31.344309,280.19623 36,280.90625 C 42.990483,281.97233 63.317361,281.53932 79.5,279.96875 C 122.72702,275.77345 174.14167,261.66196 238.03125,236.46875 C 268.45823,224.47064 278.14301,222.90833 306.5,225.53125 C 319.53212,226.73666 335.59073,227.3365 357.65625,227.40625 C 388.84832,227.50484 389.91242,227.44134 392.65625,225.40625 C 397.9554,221.47594 397.12919,216.93466 388.3125,202.0625 C 376.89659,182.80592 367.12344,174.22595 343.28125,162.5 C 334.90339,158.37963 327.89355,155 327.71875,155 z "
         style="fill:#007c59;fill-opacity:1" />
      <path
         id="path2290"
         d="M 49.328737,257.54224 C 42.422497,254.53807 42.211959,245.64309 48.903752,239.5871 C 51.728267,237.03095 52.882639,238.41342 50.295573,241.25394 C 44.934791,247.13992 44.55849,252.11768 49.25,255.08493 C 52.089885,256.88108 53.541061,257.06777 60.75,256.5644 C 69.084641,255.98242 72.17366,257.21374 65.25,258.35815 C 59.209291,259.35662 52.737328,259.02495 49.328737,257.54224 z "
         style="fill:#2b0000" />
      <path
         id="path2292"
         d="M 95.144045,233.97334 C 134.86476,230.03552 199.20926,212.30958 256.52342,189.51577 C 289.92859,176.23055 315.95683,161.34118 320.15463,153.11575 C 321.74209,150.00518 321.69088,149.42231 318.89314,138.75862 C 317.28927,132.6454 315.76647,127.43314 315.50914,127.1758 C 314.94246,126.60913 296.91965,135.85034 288.26651,141.14447 C 268.90363,152.99101 235.95143,165.53715 207.5,171.89532 C 175.91491,178.95378 119.15706,187.33469 87.75,189.5777 C 82.3875,189.96067 78.00902,190.54986 78.020044,190.88701 C 78.031068,191.22415 79.147048,195.775 80.5,201 C 83.342397,211.97713 83.525448,216.19448 81.520001,224.5 C 80.723184,227.8 80.055213,231.5125 80.035622,232.75 C 79.99352,235.40928 80.360185,235.43897 95.144045,233.97334 z "
         style="fill:#a0a0a0;fill-opacity:1" />
      <path
         id="path2294"
         d="M 234.5,109.07308 C 210.85322,103.60601 198.29663,98.73515 194.1016,93.402033 C 192.85733,91.820207 192,89.273628 192,87.159557 C 192,82.609379 198.81798,67.808874 200.729,68.210605 C 202.4395,68.570183 202.32333,69.083898 198.85443,76.5 C 194.57267,85.653887 194.34633,88.069706 197.42737,91.731312 C 201.70543,96.815506 220.10091,103.1234 244,107.70128 C 246.75243,108.22851 248.5,109.10113 248.5,109.94829 C 248.5,112.10807 247.30387,112.0333 234.5,109.07308 z "
         style="fill:#2b0000" />
      <path
         id="path2296"
         d="M 263.53878,105.06274 C 263.16722,104.46155 264.70631,101.16399 266.95898,97.734833 C 272.65607,89.062337 272.99127,87.216221 269.40184,84.280616 C 267.80583,82.97532 263.4625,80.472286 259.75,78.718318 C 253.4191,75.727288 251.36907,73.975589 254.25,74.018709 C 254.9375,74.028999 259.09484,75.963056 263.48854,78.316614 C 272.78686,83.297409 275.00861,86.150798 273.12649,90.694618 C 270.80607,96.296608 264.22048,106.16576 263.53878,105.06274 z "
         style="fill:#2b0000" />
    </g>
    <g
       id="g2298"
       transform="matrix(0.2786203,0,0,0.2786203,-54.908517,317.48553)">
      <path
         sodipodi:nodetypes="ccssssssssssssssssssssssccc"
         id="path2307"
         d="M 327.24531,232.19363 L 319.37265,231.53973 C 315.04269,231.18008 307.35524,230.46151 302.28941,229.94291 C 280.60534,227.72306 267.30027,229.94935 242,240.03094 C 191.08818,260.31815 140.62482,275.72492 106.5,281.3999 C 81.580805,285.54398 42.498719,287.37261 31.099278,284.92787 C 25.445467,283.71535 11.893957,275.14305 8.6060047,270.69927 C 7.0763169,268.63184 6.4405154,266.01357 6.1776802,260.69927 C 5.878328,254.64662 6.2942281,252.20871 8.7889828,245.39241 C 12.147137,236.21708 17.037798,228.08405 23.249212,221.34546 C 30.73565,213.22364 61.384406,191.44776 69.195081,188.70102 C 70.668685,188.1828 70.27136,186.88947 66.154137,178.80246 C 60.409033,167.51798 55.457201,152.92214 52.902067,139.74114 C 47.216412,110.41095 54.449088,96.284443 85.928044,75.236428 C 105.41397,62.207402 118.63876,56.142922 165,38.976476 C 179.575,33.579706 194.2,28.037107 197.5,26.65959 C 214.50808,19.559919 231.23659,19.704335 247.77501,27.09361 C 257.67758,31.518023 273.84957,42.711724 281.58593,50.49638 C 292.56053,61.539482 299.4908,72.763819 310.01546,96.541165 C 315.71363,109.4145 324.22901,134.14214 325.54665,141.64189 C 326.71892,148.31426 328.34479,149.67959 344.46998,157.53284 C 368.18267,169.08133 379.64773,178.63782 390.01969,195.5 C 398.2251,208.83991 400.13622,212.91975 400.68914,218.27704 C 401.17329,222.96795 400.93495,223.92386 398.58484,226.71681 C 394.14796,231.98973 391.38311,232.40109 360.03087,232.45293 L 331.56174,232.5 L 327.24531,232.19363 z "
         style="fill:#000000" />
      <path
         id="path2309"
         d="M 221.5,26.40625 C 214.56903,26.440294 207.78928,28.043176 198.71875,31.53125 C 193.64708,33.481556 177.96063,39.307487 163.875,44.5 C 121.15305,60.248981 106.69871,67.003044 87,80.375 C 59.359585,99.137976 53.152466,111.08191 57.5,137.03125 C 60.03252,152.14724 65.328992,167.43038 72.5,180.25 L 75.15625,185 L 80.34375,184.5 C 83.184605,184.22084 95.85,182.83469 108.5,181.4375 C 181.58155,173.36569 223.67286,164.14031 262.90625,147.59375 C 267.40842,145.69498 278.34289,140.02024 287.1875,134.96875 C 296.0321,129.91725 305.69947,124.69645 308.6875,123.375 C 314.91704,120.62 314.89145,121.82854 309.3125,107.5 C 300.6863,85.345121 290.17421,66.755045 280,55.65625 L 274.625,49.8125 L 272.84375,53.3125 C 270.38168,58.111572 266.68602,60.766064 261.375,61.5625 C 258.91096,61.932006 248.44544,61.823119 238.125,61.3125 C 215.13951,60.17526 206.22855,60.889701 187.8125,65.375 C 164.3636,71.086065 143.25565,78.680779 109.5,93.53125 C 79.088574,106.91045 75.907663,108.18189 74.375,107.59375 C 71.925627,106.65384 72.908003,104.01395 76.25,102.53125 C 98.689561,92.575827 131.29079,78.581268 138,76.03125 C 143.35332,73.996577 148.53608,71.124586 152,68.28125 C 166.17026,56.649671 183.80986,51.660853 202.5,54 C 207.45,54.619511 215.325,55.304379 220,55.5 C 224.675,55.69562 235.47346,56.149565 244,56.53125 C 261.56248,57.317423 266.16295,56.351507 268.03125,51.4375 C 268.78285,49.460662 269.55731,48.895807 271.03125,49.28125 C 274.33707,50.145742 272.32617,48.329079 262.53125,41.5 C 250.23459,32.926704 241.97676,29.185137 231.28125,27.3125 C 227.83849,26.70972 224.65044,26.390776 221.5,26.40625 z M 190.46875,58.53125 C 190.22429,58.541877 189.91109,58.577685 189.5,58.625 C 180.84877,59.620716 172.12307,61.884339 167.21875,64.4375 C 161.70041,67.310305 161.99749,67.635835 168.125,65.4375 C 170.53165,64.57408 177.45,62.538644 183.5,60.9375 C 189.83079,59.262044 192.17996,58.456863 190.46875,58.53125 z M 327.71875,155 C 327.54394,155 324.93482,157.35852 321.9375,160.25 C 310.29391,171.4824 289.73966,182.86213 260,194.53125 C 194.40015,220.27103 134.15588,236.67427 92.5,240.125 C 82.143182,240.98294 78.229038,241.68727 77.40625,242.8125 C 76.733688,243.73228 75.616425,244.06067 74.5625,243.65625 C 73.056987,243.07853 72.912307,242.14602 73.5,236.75 C 73.874026,233.31582 74.814157,227.65913 75.59375,224.1875 C 76.373343,220.71588 77,216.41115 77,214.625 C 77,210.92702 73.181348,194.92103 72,193.65625 C 70.516583,192.06806 59.886938,198.65019 41.78125,212.3125 C 35.333968,217.17754 28.007011,223.43035 25.5,226.21875 C 16.605866,236.11116 11,249.19409 11,260.09375 C 11,267.2127 13.093485,270.02108 22.75,275.84375 C 27.595897,278.76574 31.344309,280.19623 36,280.90625 C 42.990483,281.97233 63.317361,281.53932 79.5,279.96875 C 122.72702,275.77345 174.14167,261.66196 238.03125,236.46875 C 268.45823,224.47064 278.14301,222.90833 306.5,225.53125 C 319.53212,226.73666 335.59073,227.3365 357.65625,227.40625 C 388.84832,227.50484 389.91242,227.44134 392.65625,225.40625 C 397.9554,221.47594 397.12919,216.93466 388.3125,202.0625 C 376.89659,182.80592 367.12344,174.22595 343.28125,162.5 C 334.90339,158.37963 327.89355,155 327.71875,155 z "
         style="fill:#0c1c8c;fill-opacity:1" />
      <path
         id="path2311"
         d="M 49.328737,257.54224 C 42.422497,254.53807 42.211959,245.64309 48.903752,239.5871 C 51.728267,237.03095 52.882639,238.41342 50.295573,241.25394 C 44.934791,247.13992 44.55849,252.11768 49.25,255.08493 C 52.089885,256.88108 53.541061,257.06777 60.75,256.5644 C 69.084641,255.98242 72.17366,257.21374 65.25,258.35815 C 59.209291,259.35662 52.737328,259.02495 49.328737,257.54224 z "
         style="fill:#2b0000" />
      <path
         id="path2313"
         d="M 95.144045,233.97334 C 134.86476,230.03552 199.20926,212.30958 256.52342,189.51577 C 289.92859,176.23055 315.95683,161.34118 320.15463,153.11575 C 321.74209,150.00518 321.69088,149.42231 318.89314,138.75862 C 317.28927,132.6454 315.76647,127.43314 315.50914,127.1758 C 314.94246,126.60913 296.91965,135.85034 288.26651,141.14447 C 268.90363,152.99101 235.95143,165.53715 207.5,171.89532 C 175.91491,178.95378 119.15706,187.33469 87.75,189.5777 C 82.3875,189.96067 78.00902,190.54986 78.020044,190.88701 C 78.031068,191.22415 79.147048,195.775 80.5,201 C 83.342397,211.97713 83.525448,216.19448 81.520001,224.5 C 80.723184,227.8 80.055213,231.5125 80.035622,232.75 C 79.99352,235.40928 80.360185,235.43897 95.144045,233.97334 z "
         style="fill:#a0a0a0;fill-opacity:1" />
      <path
         id="path2315"
         d="M 234.5,109.07308 C 210.85322,103.60601 198.29663,98.73515 194.1016,93.402033 C 192.85733,91.820207 192,89.273628 192,87.159557 C 192,82.609379 198.81798,67.808874 200.729,68.210605 C 202.4395,68.570183 202.32333,69.083898 198.85443,76.5 C 194.57267,85.653887 194.34633,88.069706 197.42737,91.731312 C 201.70543,96.815506 220.10091,103.1234 244,107.70128 C 246.75243,108.22851 248.5,109.10113 248.5,109.94829 C 248.5,112.10807 247.30387,112.0333 234.5,109.07308 z "
         style="fill:#2b0000" />
      <path
         id="path2317"
         d="M 263.53878,105.06274 C 263.16722,104.46155 264.70631,101.16399 266.95898,97.734833 C 272.65607,89.062337 272.99127,87.216221 269.40184,84.280616 C 267.80583,82.97532 263.4625,80.472286 259.75,78.718318 C 253.4191,75.727288 251.36907,73.975589 254.25,74.018709 C 254.9375,74.028999 259.09484,75.963056 263.48854,78.316614 C 272.78686,83.297409 275.00861,86.150798 273.12649,90.694618 C 270.80607,96.296608 264.22048,106.16576 263.53878,105.06274 z "
         style="fill:#2b0000" />
    </g>
    <g
       id="g2220"
       transform="matrix(0.2786203,0,0,0.2786203,55.09147,317.41851)">
      <path
         sodipodi:nodetypes="ccssssssssssssssssssssssccc"
         id="path2402"
         d="M 327.24531,232.19363 L 319.37265,231.53973 C 315.04269,231.18008 307.35524,230.46151 302.28941,229.94291 C 280.60534,227.72306 267.30027,229.94935 242,240.03094 C 191.08818,260.31815 140.62482,275.72492 106.5,281.3999 C 81.580805,285.54398 42.498719,287.37261 31.099278,284.92787 C 25.445467,283.71535 11.893957,275.14305 8.6060047,270.69927 C 7.0763169,268.63184 6.4405154,266.01357 6.1776802,260.69927 C 5.878328,254.64662 6.2942281,252.20871 8.7889828,245.39241 C 12.147137,236.21708 17.037798,228.08405 23.249212,221.34546 C 30.73565,213.22364 61.384406,191.44776 69.195081,188.70102 C 70.668685,188.1828 70.27136,186.88947 66.154137,178.80246 C 60.409033,167.51798 55.457201,152.92214 52.902067,139.74114 C 47.216412,110.41095 54.449088,96.284443 85.928044,75.236428 C 105.41397,62.207402 118.63876,56.142922 165,38.976476 C 179.575,33.579706 194.2,28.037107 197.5,26.65959 C 214.50808,19.559919 231.23659,19.704335 247.77501,27.09361 C 257.67758,31.518023 273.84957,42.711724 281.58593,50.49638 C 292.56053,61.539482 299.4908,72.763819 310.01546,96.541165 C 315.71363,109.4145 324.22901,134.14214 325.54665,141.64189 C 326.71892,148.31426 328.34479,149.67959 344.46998,157.53284 C 368.18267,169.08133 379.64773,178.63782 390.01969,195.5 C 398.2251,208.83991 400.13622,212.91975 400.68914,218.27704 C 401.17329,222.96795 400.93495,223.92386 398.58484,226.71681 C 394.14796,231.98973 391.38311,232.40109 360.03087,232.45293 L 331.56174,232.5 L 327.24531,232.19363 z "
         style="fill:#000000" />
      <path
         id="path2400"
         d="M 221.5,26.40625 C 214.56903,26.440294 207.78928,28.043176 198.71875,31.53125 C 193.64708,33.481556 177.96063,39.307487 163.875,44.5 C 121.15305,60.248981 106.69871,67.003044 87,80.375 C 59.359585,99.137976 53.152466,111.08191 57.5,137.03125 C 60.03252,152.14724 65.328992,167.43038 72.5,180.25 L 75.15625,185 L 80.34375,184.5 C 83.184605,184.22084 95.85,182.83469 108.5,181.4375 C 181.58155,173.36569 223.67286,164.14031 262.90625,147.59375 C 267.40842,145.69498 278.34289,140.02024 287.1875,134.96875 C 296.0321,129.91725 305.69947,124.69645 308.6875,123.375 C 314.91704,120.62 314.89145,121.82854 309.3125,107.5 C 300.6863,85.345121 290.17421,66.755045 280,55.65625 L 274.625,49.8125 L 272.84375,53.3125 C 270.38168,58.111572 266.68602,60.766064 261.375,61.5625 C 258.91096,61.932006 248.44544,61.823119 238.125,61.3125 C 215.13951,60.17526 206.22855,60.889701 187.8125,65.375 C 164.3636,71.086065 143.25565,78.680779 109.5,93.53125 C 79.088574,106.91045 75.907663,108.18189 74.375,107.59375 C 71.925627,106.65384 72.908003,104.01395 76.25,102.53125 C 98.689561,92.575827 131.29079,78.581268 138,76.03125 C 143.35332,73.996577 148.53608,71.124586 152,68.28125 C 166.17026,56.649671 183.80986,51.660853 202.5,54 C 207.45,54.619511 215.325,55.304379 220,55.5 C 224.675,55.69562 235.47346,56.149565 244,56.53125 C 261.56248,57.317423 266.16295,56.351507 268.03125,51.4375 C 268.78285,49.460662 269.55731,48.895807 271.03125,49.28125 C 274.33707,50.145742 272.32617,48.329079 262.53125,41.5 C 250.23459,32.926704 241.97676,29.185137 231.28125,27.3125 C 227.83849,26.70972 224.65044,26.390776 221.5,26.40625 z M 190.46875,58.53125 C 190.22429,58.541877 189.91109,58.577685 189.5,58.625 C 180.84877,59.620716 172.12307,61.884339 167.21875,64.4375 C 161.70041,67.310305 161.99749,67.635835 168.125,65.4375 C 170.53165,64.57408 177.45,62.538644 183.5,60.9375 C 189.83079,59.262044 192.17996,58.456863 190.46875,58.53125 z M 327.71875,155 C 327.54394,155 324.93482,157.35852 321.9375,160.25 C 310.29391,171.4824 289.73966,182.86213 260,194.53125 C 194.40015,220.27103 134.15588,236.67427 92.5,240.125 C 82.143182,240.98294 78.229038,241.68727 77.40625,242.8125 C 76.733688,243.73228 75.616425,244.06067 74.5625,243.65625 C 73.056987,243.07853 72.912307,242.14602 73.5,236.75 C 73.874026,233.31582 74.814157,227.65913 75.59375,224.1875 C 76.373343,220.71588 77,216.41115 77,214.625 C 77,210.92702 73.181348,194.92103 72,193.65625 C 70.516583,192.06806 59.886938,198.65019 41.78125,212.3125 C 35.333968,217.17754 28.007011,223.43035 25.5,226.21875 C 16.605866,236.11116 11,249.19409 11,260.09375 C 11,267.2127 13.093485,270.02108 22.75,275.84375 C 27.595897,278.76574 31.344309,280.19623 36,280.90625 C 42.990483,281.97233 63.317361,281.53932 79.5,279.96875 C 122.72702,275.77345 174.14167,261.66196 238.03125,236.46875 C 268.45823,224.47064 278.14301,222.90833 306.5,225.53125 C 319.53212,226.73666 335.59073,227.3365 357.65625,227.40625 C 388.84832,227.50484 389.91242,227.44134 392.65625,225.40625 C 397.9554,221.47594 397.12919,216.93466 388.3125,202.0625 C 376.89659,182.80592 367.12344,174.22595 343.28125,162.5 C 334.90339,158.37963 327.89355,155 327.71875,155 z "
         style="fill:#fcb514;fill-opacity:1" />
      <path
         id="path2398"
         d="M 49.328737,257.54224 C 42.422497,254.53807 42.211959,245.64309 48.903752,239.5871 C 51.728267,237.03095 52.882639,238.41342 50.295573,241.25394 C 44.934791,247.13992 44.55849,252.11768 49.25,255.08493 C 52.089885,256.88108 53.541061,257.06777 60.75,256.5644 C 69.084641,255.98242 72.17366,257.21374 65.25,258.35815 C 59.209291,259.35662 52.737328,259.02495 49.328737,257.54224 z "
         style="fill:#2b0000" />
      <path
         id="path2396"
         d="M 95.144045,233.97334 C 134.86476,230.03552 199.20926,212.30958 256.52342,189.51577 C 289.92859,176.23055 315.95683,161.34118 320.15463,153.11575 C 321.74209,150.00518 321.69088,149.42231 318.89314,138.75862 C 317.28927,132.6454 315.76647,127.43314 315.50914,127.1758 C 314.94246,126.60913 296.91965,135.85034 288.26651,141.14447 C 268.90363,152.99101 235.95143,165.53715 207.5,171.89532 C 175.91491,178.95378 119.15706,187.33469 87.75,189.5777 C 82.3875,189.96067 78.00902,190.54986 78.020044,190.88701 C 78.031068,191.22415 79.147048,195.775 80.5,201 C 83.342397,211.97713 83.525448,216.19448 81.520001,224.5 C 80.723184,227.8 80.055213,231.5125 80.035622,232.75 C 79.99352,235.40928 80.360185,235.43897 95.144045,233.97334 z "
         style="fill:#a0a0a0;fill-opacity:1" />
      <path
         id="path2392"
         d="M 234.5,109.07308 C 210.85322,103.60601 198.29663,98.73515 194.1016,93.402033 C 192.85733,91.820207 192,89.273628 192,87.159557 C 192,82.609379 198.81798,67.808874 200.729,68.210605 C 202.4395,68.570183 202.32333,69.083898 198.85443,76.5 C 194.57267,85.653887 194.34633,88.069706 197.42737,91.731312 C 201.70543,96.815506 220.10091,103.1234 244,107.70128 C 246.75243,108.22851 248.5,109.10113 248.5,109.94829 C 248.5,112.10807 247.30387,112.0333 234.5,109.07308 z "
         style="fill:#2b0000" />
      <path
         id="path2390"
         d="M 263.53878,105.06274 C 263.16722,104.46155 264.70631,101.16399 266.95898,97.734833 C 272.65607,89.062337 272.99127,87.216221 269.40184,84.280616 C 267.80583,82.97532 263.4625,80.472286 259.75,78.718318 C 253.4191,75.727288 251.36907,73.975589 254.25,74.018709 C 254.9375,74.028999 259.09484,75.963056 263.48854,78.316614 C 272.78686,83.297409 275.00861,86.150798 273.12649,90.694618 C 270.80607,96.296608 264.22048,106.16576 263.53878,105.06274 z "
         style="fill:#2b0000" />
    </g>
    <g
       id="g2235"
       transform="matrix(0.278367,0,0,0.278367,55.093013,170.05227)">
      <path
         sodipodi:nodetypes="ccssssssssssssssssssssssccc"
         id="path2244"
         d="M 327.24531,232.19363 L 319.37265,231.53973 C 315.04269,231.18008 307.35524,230.46151 302.28941,229.94291 C 280.60534,227.72306 267.30027,229.94935 242,240.03094 C 191.08818,260.31815 140.62482,275.72492 106.5,281.3999 C 81.580805,285.54398 42.498719,287.37261 31.099278,284.92787 C 25.445467,283.71535 11.893957,275.14305 8.6060047,270.69927 C 7.0763169,268.63184 6.4405154,266.01357 6.1776802,260.69927 C 5.878328,254.64662 6.2942281,252.20871 8.7889828,245.39241 C 12.147137,236.21708 17.037798,228.08405 23.249212,221.34546 C 30.73565,213.22364 61.384406,191.44776 69.195081,188.70102 C 70.668685,188.1828 70.27136,186.88947 66.154137,178.80246 C 60.409033,167.51798 55.457201,152.92214 52.902067,139.74114 C 47.216412,110.41095 54.449088,96.284443 85.928044,75.236428 C 105.41397,62.207402 118.63876,56.142922 165,38.976476 C 179.575,33.579706 194.2,28.037107 197.5,26.65959 C 214.50808,19.559919 231.23659,19.704335 247.77501,27.09361 C 257.67758,31.518023 273.84957,42.711724 281.58593,50.49638 C 292.56053,61.539482 299.4908,72.763819 310.01546,96.541165 C 315.71363,109.4145 324.22901,134.14214 325.54665,141.64189 C 326.71892,148.31426 328.34479,149.67959 344.46998,157.53284 C 368.18267,169.08133 379.64773,178.63782 390.01969,195.5 C 398.2251,208.83991 400.13622,212.91975 400.68914,218.27704 C 401.17329,222.96795 400.93495,223.92386 398.58484,226.71681 C 394.14796,231.98973 391.38311,232.40109 360.03087,232.45293 L 331.56174,232.5 L 327.24531,232.19363 z "
         style="fill:#000000" />
      <path
         id="path2246"
         d="M 221.5,26.40625 C 214.56903,26.440294 207.78928,28.043176 198.71875,31.53125 C 193.64708,33.481556 177.96063,39.307487 163.875,44.5 C 121.15305,60.248981 106.69871,67.003044 87,80.375 C 59.359585,99.137976 53.152466,111.08191 57.5,137.03125 C 60.03252,152.14724 65.328992,167.43038 72.5,180.25 L 75.15625,185 L 80.34375,184.5 C 83.184605,184.22084 95.85,182.83469 108.5,181.4375 C 181.58155,173.36569 223.67286,164.14031 262.90625,147.59375 C 267.40842,145.69498 278.34289,140.02024 287.1875,134.96875 C 296.0321,129.91725 305.69947,124.69645 308.6875,123.375 C 314.91704,120.62 314.89145,121.82854 309.3125,107.5 C 300.6863,85.345121 290.17421,66.755045 280,55.65625 L 274.625,49.8125 L 272.84375,53.3125 C 270.38168,58.111572 266.68602,60.766064 261.375,61.5625 C 258.91096,61.932006 248.44544,61.823119 238.125,61.3125 C 215.13951,60.17526 206.22855,60.889701 187.8125,65.375 C 164.3636,71.086065 143.25565,78.680779 109.5,93.53125 C 79.088574,106.91045 75.907663,108.18189 74.375,107.59375 C 71.925627,106.65384 72.908003,104.01395 76.25,102.53125 C 98.689561,92.575827 131.29079,78.581268 138,76.03125 C 143.35332,73.996577 148.53608,71.124586 152,68.28125 C 166.17026,56.649671 183.80986,51.660853 202.5,54 C 207.45,54.619511 215.325,55.304379 220,55.5 C 224.675,55.69562 235.47346,56.149565 244,56.53125 C 261.56248,57.317423 266.16295,56.351507 268.03125,51.4375 C 268.78285,49.460662 269.55731,48.895807 271.03125,49.28125 C 274.33707,50.145742 272.32617,48.329079 262.53125,41.5 C 250.23459,32.926704 241.97676,29.185137 231.28125,27.3125 C 227.83849,26.70972 224.65044,26.390776 221.5,26.40625 z M 190.46875,58.53125 C 190.22429,58.541877 189.91109,58.577685 189.5,58.625 C 180.84877,59.620716 172.12307,61.884339 167.21875,64.4375 C 161.70041,67.310305 161.99749,67.635835 168.125,65.4375 C 170.53165,64.57408 177.45,62.538644 183.5,60.9375 C 189.83079,59.262044 192.17996,58.456863 190.46875,58.53125 z M 327.71875,155 C 327.54394,155 324.93482,157.35852 321.9375,160.25 C 310.29391,171.4824 289.73966,182.86213 260,194.53125 C 194.40015,220.27103 134.15588,236.67427 92.5,240.125 C 82.143182,240.98294 78.229038,241.68727 77.40625,242.8125 C 76.733688,243.73228 75.616425,244.06067 74.5625,243.65625 C 73.056987,243.07853 72.912307,242.14602 73.5,236.75 C 73.874026,233.31582 74.814157,227.65913 75.59375,224.1875 C 76.373343,220.71588 77,216.41115 77,214.625 C 77,210.92702 73.181348,194.92103 72,193.65625 C 70.516583,192.06806 59.886938,198.65019 41.78125,212.3125 C 35.333968,217.17754 28.007011,223.43035 25.5,226.21875 C 16.605866,236.11116 11,249.19409 11,260.09375 C 11,267.2127 13.093485,270.02108 22.75,275.84375 C 27.595897,278.76574 31.344309,280.19623 36,280.90625 C 42.990483,281.97233 63.317361,281.53932 79.5,279.96875 C 122.72702,275.77345 174.14167,261.66196 238.03125,236.46875 C 268.45823,224.47064 278.14301,222.90833 306.5,225.53125 C 319.53212,226.73666 335.59073,227.3365 357.65625,227.40625 C 388.84832,227.50484 389.91242,227.44134 392.65625,225.40625 C 397.9554,221.47594 397.12919,216.93466 388.3125,202.0625 C 376.89659,182.80592 367.12344,174.22595 343.28125,162.5 C 334.90339,158.37963 327.89355,155 327.71875,155 z "
         style="fill:#ffffff;fill-opacity:1" />
      <path
         id="path2248"
         d="M 49.328737,257.54224 C 42.422497,254.53807 42.211959,245.64309 48.903752,239.5871 C 51.728267,237.03095 52.882639,238.41342 50.295573,241.25394 C 44.934791,247.13992 44.55849,252.11768 49.25,255.08493 C 52.089885,256.88108 53.541061,257.06777 60.75,256.5644 C 69.084641,255.98242 72.17366,257.21374 65.25,258.35815 C 59.209291,259.35662 52.737328,259.02495 49.328737,257.54224 z "
         style="fill:#2b0000" />
      <path
         id="path2250"
         d="M 95.144045,233.97334 C 134.86476,230.03552 199.20926,212.30958 256.52342,189.51577 C 289.92859,176.23055 315.95683,161.34118 320.15463,153.11575 C 321.74209,150.00518 321.69088,149.42231 318.89314,138.75862 C 317.28927,132.6454 315.76647,127.43314 315.50914,127.1758 C 314.94246,126.60913 296.91965,135.85034 288.26651,141.14447 C 268.90363,152.99101 235.95143,165.53715 207.5,171.89532 C 175.91491,178.95378 119.15706,187.33469 87.75,189.5777 C 82.3875,189.96067 78.00902,190.54986 78.020044,190.88701 C 78.031068,191.22415 79.147048,195.775 80.5,201 C 83.342397,211.97713 83.525448,216.19448 81.520001,224.5 C 80.723184,227.8 80.055213,231.5125 80.035622,232.75 C 79.99352,235.40928 80.360185,235.43897 95.144045,233.97334 z "
         style="fill:#a0a0a0;fill-opacity:1" />
      <path
         id="path2252"
         d="M 234.5,109.07308 C 210.85322,103.60601 198.29663,98.73515 194.1016,93.402033 C 192.85733,91.820207 192,89.273628 192,87.159557 C 192,82.609379 198.81798,67.808874 200.729,68.210605 C 202.4395,68.570183 202.32333,69.083898 198.85443,76.5 C 194.57267,85.653887 194.34633,88.069706 197.42737,91.731312 C 201.70543,96.815506 220.10091,103.1234 244,107.70128 C 246.75243,108.22851 248.5,109.10113 248.5,109.94829 C 248.5,112.10807 247.30387,112.0333 234.5,109.07308 z "
         style="fill:#2b0000" />
      <path
         id="path2254"
         d="M 263.53878,105.06274 C 263.16722,104.46155 264.70631,101.16399 266.95898,97.734833 C 272.65607,89.062337 272.99127,87.216221 269.40184,84.280616 C 267.80583,82.97532 263.4625,80.472286 259.75,78.718318 C 253.4191,75.727288 251.36907,73.975589 254.25,74.018709 C 254.9375,74.028999 259.09484,75.963056 263.48854,78.316614 C 272.78686,83.297409 275.00861,86.150798 273.12649,90.694618 C 270.80607,96.296608 264.22048,106.16576 263.53878,105.06274 z "
         style="fill:#2b0000" />
    </g>
    <g
       id="g2319"
       transform="matrix(0.2786203,0,0,0.2786203,55.09147,243.69917)">
      <path
         sodipodi:nodetypes="ccssssssssssssssssssssssccc"
         id="path2328"
         d="M 327.24531,232.19363 L 319.37265,231.53973 C 315.04269,231.18008 307.35524,230.46151 302.28941,229.94291 C 280.60534,227.72306 267.30027,229.94935 242,240.03094 C 191.08818,260.31815 140.62482,275.72492 106.5,281.3999 C 81.580805,285.54398 42.498719,287.37261 31.099278,284.92787 C 25.445467,283.71535 11.893957,275.14305 8.6060047,270.69927 C 7.0763169,268.63184 6.4405154,266.01357 6.1776802,260.69927 C 5.878328,254.64662 6.2942281,252.20871 8.7889828,245.39241 C 12.147137,236.21708 17.037798,228.08405 23.249212,221.34546 C 30.73565,213.22364 61.384406,191.44776 69.195081,188.70102 C 70.668685,188.1828 70.27136,186.88947 66.154137,178.80246 C 60.409033,167.51798 55.457201,152.92214 52.902067,139.74114 C 47.216412,110.41095 54.449088,96.284443 85.928044,75.236428 C 105.41397,62.207402 118.63876,56.142922 165,38.976476 C 179.575,33.579706 194.2,28.037107 197.5,26.65959 C 214.50808,19.559919 231.23659,19.704335 247.77501,27.09361 C 257.67758,31.518023 273.84957,42.711724 281.58593,50.49638 C 292.56053,61.539482 299.4908,72.763819 310.01546,96.541165 C 315.71363,109.4145 324.22901,134.14214 325.54665,141.64189 C 326.71892,148.31426 328.34479,149.67959 344.46998,157.53284 C 368.18267,169.08133 379.64773,178.63782 390.01969,195.5 C 398.2251,208.83991 400.13622,212.91975 400.68914,218.27704 C 401.17329,222.96795 400.93495,223.92386 398.58484,226.71681 C 394.14796,231.98973 391.38311,232.40109 360.03087,232.45293 L 331.56174,232.5 L 327.24531,232.19363 z "
         style="fill:#000000" />
      <path
         id="path2330"
         d="M 221.5,26.40625 C 214.56903,26.440294 207.78928,28.043176 198.71875,31.53125 C 193.64708,33.481556 177.96063,39.307487 163.875,44.5 C 121.15305,60.248981 106.69871,67.003044 87,80.375 C 59.359585,99.137976 53.152466,111.08191 57.5,137.03125 C 60.03252,152.14724 65.328992,167.43038 72.5,180.25 L 75.15625,185 L 80.34375,184.5 C 83.184605,184.22084 95.85,182.83469 108.5,181.4375 C 181.58155,173.36569 223.67286,164.14031 262.90625,147.59375 C 267.40842,145.69498 278.34289,140.02024 287.1875,134.96875 C 296.0321,129.91725 305.69947,124.69645 308.6875,123.375 C 314.91704,120.62 314.89145,121.82854 309.3125,107.5 C 300.6863,85.345121 290.17421,66.755045 280,55.65625 L 274.625,49.8125 L 272.84375,53.3125 C 270.38168,58.111572 266.68602,60.766064 261.375,61.5625 C 258.91096,61.932006 248.44544,61.823119 238.125,61.3125 C 215.13951,60.17526 206.22855,60.889701 187.8125,65.375 C 164.3636,71.086065 143.25565,78.680779 109.5,93.53125 C 79.088574,106.91045 75.907663,108.18189 74.375,107.59375 C 71.925627,106.65384 72.908003,104.01395 76.25,102.53125 C 98.689561,92.575827 131.29079,78.581268 138,76.03125 C 143.35332,73.996577 148.53608,71.124586 152,68.28125 C 166.17026,56.649671 183.80986,51.660853 202.5,54 C 207.45,54.619511 215.325,55.304379 220,55.5 C 224.675,55.69562 235.47346,56.149565 244,56.53125 C 261.56248,57.317423 266.16295,56.351507 268.03125,51.4375 C 268.78285,49.460662 269.55731,48.895807 271.03125,49.28125 C 274.33707,50.145742 272.32617,48.329079 262.53125,41.5 C 250.23459,32.926704 241.97676,29.185137 231.28125,27.3125 C 227.83849,26.70972 224.65044,26.390776 221.5,26.40625 z M 190.46875,58.53125 C 190.22429,58.541877 189.91109,58.577685 189.5,58.625 C 180.84877,59.620716 172.12307,61.884339 167.21875,64.4375 C 161.70041,67.310305 161.99749,67.635835 168.125,65.4375 C 170.53165,64.57408 177.45,62.538644 183.5,60.9375 C 189.83079,59.262044 192.17996,58.456863 190.46875,58.53125 z M 327.71875,155 C 327.54394,155 324.93482,157.35852 321.9375,160.25 C 310.29391,171.4824 289.73966,182.86213 260,194.53125 C 194.40015,220.27103 134.15588,236.67427 92.5,240.125 C 82.143182,240.98294 78.229038,241.68727 77.40625,242.8125 C 76.733688,243.73228 75.616425,244.06067 74.5625,243.65625 C 73.056987,243.07853 72.912307,242.14602 73.5,236.75 C 73.874026,233.31582 74.814157,227.65913 75.59375,224.1875 C 76.373343,220.71588 77,216.41115 77,214.625 C 77,210.92702 73.181348,194.92103 72,193.65625 C 70.516583,192.06806 59.886938,198.65019 41.78125,212.3125 C 35.333968,217.17754 28.007011,223.43035 25.5,226.21875 C 16.605866,236.11116 11,249.19409 11,260.09375 C 11,267.2127 13.093485,270.02108 22.75,275.84375 C 27.595897,278.76574 31.344309,280.19623 36,280.90625 C 42.990483,281.97233 63.317361,281.53932 79.5,279.96875 C 122.72702,275.77345 174.14167,261.66196 238.03125,236.46875 C 268.45823,224.47064 278.14301,222.90833 306.5,225.53125 C 319.53212,226.73666 335.59073,227.3365 357.65625,227.40625 C 388.84832,227.50484 389.91242,227.44134 392.65625,225.40625 C 397.9554,221.47594 397.12919,216.93466 388.3125,202.0625 C 376.89659,182.80592 367.12344,174.22595 343.28125,162.5 C 334.90339,158.37963 327.89355,155 327.71875,155 z "
         style="fill:#000000;fill-opacity:1" />
      <path
         id="path2332"
         d="M 49.328737,257.54224 C 42.422497,254.53807 42.211959,245.64309 48.903752,239.5871 C 51.728267,237.03095 52.882639,238.41342 50.295573,241.25394 C 44.934791,247.13992 44.55849,252.11768 49.25,255.08493 C 52.089885,256.88108 53.541061,257.06777 60.75,256.5644 C 69.084641,255.98242 72.17366,257.21374 65.25,258.35815 C 59.209291,259.35662 52.737328,259.02495 49.328737,257.54224 z "
         style="fill:#2b0000" />
      <path
         id="path2334"
         d="M 95.144045,233.97334 C 134.86476,230.03552 199.20926,212.30958 256.52342,189.51577 C 289.92859,176.23055 315.95683,161.34118 320.15463,153.11575 C 321.74209,150.00518 321.69088,149.42231 318.89314,138.75862 C 317.28927,132.6454 315.76647,127.43314 315.50914,127.1758 C 314.94246,126.60913 296.91965,135.85034 288.26651,141.14447 C 268.90363,152.99101 235.95143,165.53715 207.5,171.89532 C 175.91491,178.95378 119.15706,187.33469 87.75,189.5777 C 82.3875,189.96067 78.00902,190.54986 78.020044,190.88701 C 78.031068,191.22415 79.147048,195.775 80.5,201 C 83.342397,211.97713 83.525448,216.19448 81.520001,224.5 C 80.723184,227.8 80.055213,231.5125 80.035622,232.75 C 79.99352,235.40928 80.360185,235.43897 95.144045,233.97334 z "
         style="fill:#a0a0a0;fill-opacity:1" />
      <path
         id="path2336"
         d="M 234.5,109.07308 C 210.85322,103.60601 198.29663,98.73515 194.1016,93.402033 C 192.85733,91.820207 192,89.273628 192,87.159557 C 192,82.609379 198.81798,67.808874 200.729,68.210605 C 202.4395,68.570183 202.32333,69.083898 198.85443,76.5 C 194.57267,85.653887 194.34633,88.069706 197.42737,91.731312 C 201.70543,96.815506 220.10091,103.1234 244,107.70128 C 246.75243,108.22851 248.5,109.10113 248.5,109.94829 C 248.5,112.10807 247.30387,112.0333 234.5,109.07308 z "
         style="fill:#2b0000" />
      <path
         id="path2338"
         d="M 263.53878,105.06274 C 263.16722,104.46155 264.70631,101.16399 266.95898,97.734833 C 272.65607,89.062337 272.99127,87.216221 269.40184,84.280616 C 267.80583,82.97532 263.4625,80.472286 259.75,78.718318 C 253.4191,75.727288 251.36907,73.975589 254.25,74.018709 C 254.9375,74.028999 259.09484,75.963056 263.48854,78.316614 C 272.78686,83.297409 275.00861,86.150798 273.12649,90.694618 C 270.80607,96.296608 264.22048,106.16576 263.53878,105.06274 z "
         style="fill:#2b0000" />
    </g>
  </g>
</svg>
