<?xml version="1.0" encoding="UTF-8" standalone="no"?>
<!-- Generator: Adobe Illustrator 13.0.0, SVG Export Plug-In . SVG Version: 6.00 Build 14948)  -->
<svg
   xmlns:dc="http://purl.org/dc/elements/1.1/"
   xmlns:cc="http://creativecommons.org/ns#"
   xmlns:rdf="http://www.w3.org/1999/02/22-rdf-syntax-ns#"
   xmlns:svg="http://www.w3.org/2000/svg"
   xmlns="http://www.w3.org/2000/svg"
   xmlns:sodipodi="http://sodipodi.sourceforge.net/DTD/sodipodi-0.dtd"
   xmlns:inkscape="http://www.inkscape.org/namespaces/inkscape"
   version="1.0"
   id="Layer_2"
   x="0px"
   y="0px"
   width="220.8315"
   height="220.01013"
   enable-background="new 0 0 250.416 294.336"
   xml:space="preserve"
   sodipodi:version="0.32"
   inkscape:version="0.46"
   sodipodi:docname="hardhats.svg"
   inkscape:output_extension="org.inkscape.output.svg.inkscape"
   sodipodi:docbase="/home/lcordier/trac-hacks/sixhatsmacro/0.11/sixhats/htdocs/img/source"><metadata
   id="metadata128"><rdf:RDF><cc:Work
       rdf:about=""><dc:format>image/svg+xml</dc:format><dc:type
         rdf:resource="http://purl.org/dc/dcmitype/StillImage" /><dc:title>Hardhats</dc:title><dc:creator><cc:Agent><dc:title>Luan Serfontein &lt;luan.serfontein@gmail.com&gt;</dc:title></cc:Agent></dc:creator><cc:license
         rdf:resource="http://creativecommons.org/licenses/by/3.0/" /><dc:date>2008-05-29</dc:date><dc:rights><cc:Agent><dc:title>Louis Cordier &lt;lcordier@gmail.com&gt;</dc:title></cc:Agent></dc:rights><dc:publisher><cc:Agent><dc:title>Louis Cordier</dc:title></cc:Agent></dc:publisher><dc:subject><rdf:Bag><rdf:li>six thinking hats</rdf:li><rdf:li>hardhat</rdf:li></rdf:Bag></dc:subject><dc:description>Six Thinking Hats as hardhats.</dc:description><dc:contributor><cc:Agent><dc:title></dc:title></cc:Agent></dc:contributor></cc:Work><cc:License
       rdf:about="http://creativecommons.org/licenses/by/3.0/"><cc:permits
         rdf:resource="http://creativecommons.org/ns#Reproduction" /><cc:permits
         rdf:resource="http://creativecommons.org/ns#Distribution" /><cc:requires
         rdf:resource="http://creativecommons.org/ns#Notice" /><cc:requires
         rdf:resource="http://creativecommons.org/ns#Attribution" /><cc:permits
         rdf:resource="http://creativecommons.org/ns#DerivativeWorks" /></cc:License></rdf:RDF></metadata><defs
   id="defs126" /><sodipodi:namedview
   inkscape:window-height="744"
   inkscape:window-width="1014"
   inkscape:pageshadow="2"
   inkscape:pageopacity="0.0"
   guidetolerance="10.0"
   gridtolerance="10.0"
   objecttolerance="10.0"
   borderopacity="1.0"
   bordercolor="#666666"
   pagecolor="#ffffff"
   id="base"
   inkscape:zoom="1.3827734"
   inkscape:cx="194.63364"
   inkscape:cy="23.426252"
   inkscape:window-x="1536"
   inkscape:window-y="256"
   inkscape:current-layer="Layer_2"
   height="239.34px"
   width="250.416px"
   showgrid="false" />
<g
   id="g2304"
   transform="translate(-29.584278,-37.163127)"><path
     id="path57"
     d="M 199.252,178.435 C 199.252,178.435 219.502,180.56 224.627,180.185 C 229.752,179.81 240.752,176.31 243.627,173.935 L 243.502,162.185 L 199.252,178.435 z "
     style="fill:#303030" /><path
     id="path59"
     d="M 243.502,147.935 C 243.502,147.935 242.377,134.81 235.127,126.06 C 227.877,117.31 217.002,112.935 213.127,112.185 C 209.252,111.435 184.002,108.06 165.877,127.935 L 157.377,157.31 C 157.377,157.31 138.627,167.31 141.252,171.31 C 143.877,175.31 152.127,182.56 158.877,182.81 C 165.627,183.06 189.877,181.56 211.752,177.56 C 233.627,173.56 247.377,167.06 249.127,161.31 C 250.877,155.56 244.127,148.435 243.502,147.935 z "
     style="fill:#5f5f60" /><path
     id="path61"
     d="M 243.502,147.935 C 243.502,147.935 242.377,134.81 235.127,126.06 C 227.877,117.31 217.002,112.935 213.127,112.185 C 209.252,111.435 184.002,108.06 165.877,127.935 L 157.377,157.31 C 157.377,157.31 138.627,167.31 141.252,171.31 C 143.877,175.31 152.127,182.56 158.877,182.81 C 165.627,183.06 189.877,181.56 211.752,177.56 C 233.627,173.56 247.377,167.06 249.127,161.31 C 250.877,155.56 244.127,148.435 243.502,147.935 z M 150.002,177.935 C 148.377,177.185 143.127,171.935 143.377,169.56 C 143.627,167.185 153.752,160.81 153.752,160.81 C 153.752,160.81 149.752,166.435 150.502,172.185 C 151.252,177.935 155.502,180.185 155.502,180.185 C 155.502,180.185 151.627,178.685 150.002,177.935 z M 159.002,154.81 C 159.252,152.935 165.877,129.935 165.877,129.935 L 166.877,131.185 C 166.877,131.185 160.377,155.935 160.377,158.81 C 160.377,158.81 158.752,156.685 159.002,154.81 z M 157.502,160.435 L 170.627,166.81 C 170.627,166.81 161.752,166.935 157.502,160.435 z M 167.127,128.06 C 181.877,112.31 195.502,115.435 195.502,115.435 C 186.752,116.56 177.877,123.685 177.502,124.685 C 177.127,125.685 182.252,126.435 182.252,126.435 L 187.877,125.56 C 186.252,126.06 177.627,132.435 177.627,132.435 L 167.127,128.06 z M 183.127,172.56 L 180.877,170.81 L 185.127,157.06 L 197.002,157.435 L 196.877,158.81 L 186.377,159.185 L 183.377,170.685 L 196.252,171.81 L 197.752,173.31 L 183.127,172.56 z M 202.502,148.185 C 191.502,152.935 186.502,141.185 187.002,139.435 C 187.502,137.685 189.502,133.435 195.252,130.81 C 195.252,130.81 202.252,129.81 205.002,132.435 C 207.752,135.06 213.502,143.435 202.502,148.185 z M 236.627,129.935 C 238.377,133.185 242.127,148.06 242.127,148.06 C 242.127,148.06 240.252,149.81 240.002,149.185 C 239.752,148.56 239.002,130.56 229.752,122.435 C 229.752,122.435 234.877,126.685 236.627,129.935 z M 231.002,167.935 L 226.502,158.06 L 217.377,159.31 L 217.002,170.185 L 227.502,169.935 C 221.752,173.185 213.752,171.06 213.752,171.06 L 216.252,157.81 L 226.627,156.435 L 232.627,166.185 L 231.002,167.935 z M 248.377,158.685 C 248.127,161.185 246.752,165.185 233.627,170.56 C 233.627,170.56 247.002,162.935 246.877,159.185 C 246.752,155.435 244.377,155.06 245.252,152.56 C 245.252,152.56 248.627,156.185 248.377,158.685 z "
     style="fill:#303030" /><g
     id="g63">
	<path
   id="path65"
   d="M 170.127,165.56 L 176.502,134.435 L 167.252,129.81 L 178.252,133.31 C 178.252,133.31 187.377,124.935 200.377,121.935 C 213.377,118.935 224.127,117.685 231.627,126.31 C 231.627,126.31 222.002,119.31 211.252,121.81 C 200.502,124.31 183.502,131.56 181.002,136.185 C 178.502,140.81 175.627,166.81 175.627,166.81 L 180.627,167.435 L 180.252,169.31 C 180.252,169.31 173.502,168.435 170.127,165.56 z "
   style="fill:#0c0c0c" />
	<path
   id="path67"
   d="M 196.877,158.81 L 197.877,171.185 C 197.877,171.185 205.252,172.185 213.002,170.435 L 199.877,169.435 L 198.877,160.06 L 196.877,158.81 z "
   style="fill:#0c0c0c" />
	<path
   id="path69"
   d="M 232.627,166.185 C 232.627,166.185 238.377,164.31 240.627,162.185 L 240.502,153.06 L 242.127,149.935 L 240.127,149.935 L 238.252,153.06 L 239.002,161.56 C 239.002,161.56 233.127,166.31 232.627,166.185 z "
   style="fill:#0c0c0c" />
	<path
   id="path71"
   d="M 223.377,158.935 L 226.502,158.56 L 230.877,168.56 C 230.877,168.56 223.627,170.435 219.752,170.31 C 219.752,170.31 227.377,168.435 227.252,166.81 C 227.127,165.185 223.377,158.935 223.377,158.935 z "
   style="fill:#0c0c0c" />
	<path
   id="path73"
   d="M 157.502,161.185 C 157.502,161.185 165.877,167.81 169.377,168.435 C 169.377,168.435 159.877,169.185 157.502,161.185 z "
   style="fill:#0c0c0c" />
	<path
   id="path75"
   d="M 177.752,124.185 C 177.752,124.185 178.252,125.56 179.627,125.06 C 181.002,124.56 188.853,119.783 195.752,117.935 C 202.752,116.06 214.502,116.435 214.502,116.435 C 214.502,116.435 195.877,110.56 177.752,124.185 z "
   style="fill:#0c0c0c" />
</g><path
     id="path113"
     d="M 243.502,147.935 C 243.502,147.935 242.377,134.81 235.127,126.06 C 227.877,117.31 217.002,112.935 213.127,112.185 C 209.252,111.435 184.002,108.06 165.877,127.935 L 157.377,157.31 C 157.377,157.31 138.627,167.31 141.252,171.31 C 143.877,175.31 152.127,182.56 158.877,182.81 C 165.627,183.06 189.877,181.56 211.752,177.56 C 233.627,173.56 247.377,167.06 249.127,161.31 C 250.877,155.56 244.127,148.435 243.502,147.935 z "
     style="fill:none;stroke:#0c0c0c;stroke-width:2" /></g>
<g
   id="g2317"
   transform="translate(-2.3844877e-5,-37.163127)"><path
     id="path39"
     d="M 59.252,178.435 C 59.252,178.435 79.502,180.56 84.627,180.185 C 89.752,179.81 100.752,176.31 103.627,173.935 L 103.502,162.185 L 59.252,178.435 z "
     style="fill:#303030" /><path
     id="path41"
     d="M 103.502,147.935 C 103.502,147.935 102.377,134.81 95.127,126.06 C 87.877,117.31 77.002,112.935 73.127,112.185 C 69.252,111.435 44.002,108.06 25.877,127.935 L 17.377,157.31 C 17.377,157.31 -1.373,167.31 1.252,171.31 C 3.877,175.31 12.127,182.56 18.877,182.81 C 25.627,183.06 49.877,181.56 71.752,177.56 C 93.627,173.56 107.377,167.06 109.127,161.31 C 110.877,155.56 104.127,148.435 103.502,147.935 z "
     style="fill:#1da077" /><path
     id="path43"
     d="M 103.502,147.935 C 103.502,147.935 102.377,134.81 95.127,126.06 C 87.877,117.31 77.002,112.935 73.127,112.185 C 69.252,111.435 44.002,108.06 25.877,127.935 L 17.377,157.31 C 17.377,157.31 -1.373,167.31 1.252,171.31 C 3.877,175.31 12.127,182.56 18.877,182.81 C 25.627,183.06 49.877,181.56 71.752,177.56 C 93.627,173.56 107.377,167.06 109.127,161.31 C 110.877,155.56 104.127,148.435 103.502,147.935 z M 10.002,177.935 C 8.377,177.185 3.127,171.935 3.377,169.56 C 3.627,167.185 13.752,160.81 13.752,160.81 C 13.752,160.81 9.752,166.435 10.502,172.185 C 11.252,177.935 15.502,180.185 15.502,180.185 C 15.502,180.185 11.627,178.685 10.002,177.935 z M 19.002,154.81 C 19.252,152.935 25.877,129.935 25.877,129.935 L 26.877,131.185 C 26.877,131.185 20.377,155.935 20.377,158.81 C 20.377,158.81 18.752,156.685 19.002,154.81 z M 17.502,160.435 L 30.627,166.81 C 30.627,166.81 21.752,166.935 17.502,160.435 z M 27.127,128.06 C 41.877,112.31 55.502,115.435 55.502,115.435 C 46.752,116.56 37.877,123.685 37.502,124.685 C 37.127,125.685 42.252,126.435 42.252,126.435 L 47.877,125.56 C 46.252,126.06 37.627,132.435 37.627,132.435 L 27.127,128.06 z M 43.127,172.56 L 40.877,170.81 L 45.127,157.06 L 57.002,157.435 L 56.877,158.81 L 46.377,159.185 L 43.377,170.685 L 56.252,171.81 L 57.752,173.31 L 43.127,172.56 z M 62.502,148.185 C 51.502,152.935 46.502,141.185 47.002,139.435 C 47.502,137.685 49.502,133.435 55.252,130.81 C 55.252,130.81 62.252,129.81 65.002,132.435 C 67.752,135.06 73.502,143.435 62.502,148.185 z M 96.627,129.935 C 98.377,133.185 102.127,148.06 102.127,148.06 C 102.127,148.06 100.252,149.81 100.002,149.185 C 99.752,148.56 99.002,130.56 89.752,122.435 C 89.752,122.435 94.877,126.685 96.627,129.935 z M 91.002,167.935 L 86.502,158.06 L 77.377,159.31 L 77.002,170.185 L 87.502,169.935 C 81.752,173.185 73.752,171.06 73.752,171.06 L 76.252,157.81 L 86.627,156.435 L 92.627,166.185 L 91.002,167.935 z M 108.377,158.685 C 108.127,161.185 106.752,165.185 93.627,170.56 C 93.627,170.56 107.002,162.935 106.877,159.185 C 106.752,155.435 104.377,155.06 105.252,152.56 C 105.252,152.56 108.627,156.185 108.377,158.685 z "
     style="fill:#007c59" /><path
     id="path45"
     d="M 30.127,165.56 L 36.502,134.435 L 27.252,129.81 L 38.252,133.31 C 38.252,133.31 47.377,124.935 60.377,121.935 C 73.377,118.935 84.127,117.685 91.627,126.31 C 91.627,126.31 82.002,119.31 71.252,121.81 C 60.502,124.31 43.502,131.56 41.002,136.185 C 38.502,140.81 35.627,166.81 35.627,166.81 L 40.627,167.435 L 40.252,169.31 C 40.252,169.31 33.502,168.435 30.127,165.56 z "
     style="fill:#00422e" /><path
     id="path47"
     d="M 56.877,158.81 L 57.877,171.185 C 57.877,171.185 65.252,172.185 73.002,170.435 L 59.877,169.435 L 58.877,160.06 L 56.877,158.81 z "
     style="fill:#00422e" /><path
     id="path49"
     d="M 92.627,166.185 C 92.627,166.185 98.377,164.31 100.627,162.185 L 100.502,153.06 L 102.127,149.935 L 100.127,149.935 L 98.252,153.06 L 99.002,161.56 C 99.002,161.56 93.127,166.31 92.627,166.185 z "
     style="fill:#00422e" /><path
     id="path51"
     d="M 83.377,158.935 L 86.502,158.56 L 90.877,168.56 C 90.877,168.56 83.627,170.435 79.752,170.31 C 79.752,170.31 87.377,168.435 87.252,166.81 C 87.127,165.185 83.377,158.935 83.377,158.935 z "
     style="fill:#00422e" /><path
     id="path53"
     d="M 17.502,161.185 C 17.502,161.185 25.877,167.81 29.377,168.435 C 29.377,168.435 19.877,169.185 17.502,161.185 z "
     style="fill:#00422e" /><path
     id="path55"
     d="M 37.752,124.185 C 37.752,124.185 38.252,125.56 39.627,125.06 C 41.002,124.56 48.853,119.783 55.752,117.935 C 62.752,116.06 74.502,116.435 74.502,116.435 C 74.502,116.435 55.877,110.56 37.752,124.185 z "
     style="fill:#00422e" /><path
     id="path115"
     d="M 103.502,147.935 C 103.502,147.935 102.377,134.81 95.127,126.06 C 87.877,117.31 77.002,112.935 73.127,112.185 C 69.252,111.435 44.002,108.06 25.877,127.935 L 17.377,157.31 C 17.377,157.31 -1.373,167.31 1.252,171.31 C 3.877,175.31 12.127,182.56 18.877,182.81 C 25.627,183.06 49.877,181.56 71.752,177.56 C 93.627,173.56 107.377,167.06 109.127,161.31 C 110.877,155.56 104.127,148.435 103.502,147.935 z "
     style="fill:none;stroke:#00422e;stroke-width:2" /></g>
<g
   id="g2292"
   transform="translate(-29.584278,1.2705418e-4)"><path
     id="path21"
     d="M 199.252,67.935 C 199.252,67.935 219.502,70.06 224.627,69.685 C 229.752,69.31 240.752,65.81 243.627,63.435 L 243.502,51.685 L 199.252,67.935 z "
     style="fill:#303030" /><path
     id="path23"
     d="M 243.502,37.435 C 243.502,37.435 242.377,24.31 235.127,15.56 C 227.877,6.81 217.002,2.435 213.127,1.685 C 209.252,0.935 184.002,-2.44 165.877,17.435 L 157.377,46.81 C 157.377,46.81 138.627,56.81 141.252,60.81 C 143.877,64.81 152.127,72.06 158.877,72.31 C 165.627,72.56 189.877,71.06 211.752,67.06 C 233.627,63.06 247.377,56.56 249.127,50.81 C 250.877,45.06 244.127,37.935 243.502,37.435 z "
     style="fill:#ffffff" /><path
     id="path25"
     d="M 243.502,37.435 C 243.502,37.435 242.377,24.31 235.127,15.56 C 227.877,6.81 217.002,2.435 213.127,1.685 C 209.252,0.935 184.002,-2.44 165.877,17.435 L 157.377,46.81 C 157.377,46.81 138.627,56.81 141.252,60.81 C 143.877,64.81 152.127,72.06 158.877,72.31 C 165.627,72.56 189.877,71.06 211.752,67.06 C 233.627,63.06 247.377,56.56 249.127,50.81 C 250.877,45.06 244.127,37.935 243.502,37.435 z M 150.002,67.435 C 148.377,66.685 143.127,61.435 143.377,59.06 C 143.627,56.685 153.752,50.31 153.752,50.31 C 153.752,50.31 149.752,55.935 150.502,61.685 C 151.252,67.435 155.502,69.685 155.502,69.685 C 155.502,69.685 151.627,68.185 150.002,67.435 z M 159.002,44.31 C 159.252,42.435 165.877,19.435 165.877,19.435 L 166.877,20.685 C 166.877,20.685 160.377,45.435 160.377,48.31 C 160.377,48.31 158.752,46.185 159.002,44.31 z M 157.502,49.935 L 170.627,56.31 C 170.627,56.31 161.752,56.435 157.502,49.935 z M 167.127,17.56 C 181.877,1.81 195.502,4.935 195.502,4.935 C 186.752,6.06 177.877,13.185 177.502,14.185 C 177.127,15.185 182.252,15.935 182.252,15.935 L 187.877,15.06 C 186.252,15.56 177.627,21.935 177.627,21.935 L 167.127,17.56 z M 183.127,62.06 L 180.877,60.31 L 185.127,46.56 L 197.002,46.935 L 196.877,48.31 L 186.377,48.685 L 183.377,60.185 L 196.252,61.31 L 197.752,62.81 L 183.127,62.06 z M 202.502,37.685 C 191.502,42.435 186.502,30.685 187.002,28.935 C 187.502,27.185 189.502,22.935 195.252,20.31 C 195.252,20.31 202.252,19.31 205.002,21.935 C 207.752,24.56 213.502,32.935 202.502,37.685 z M 236.627,19.435 C 238.377,22.685 242.127,37.56 242.127,37.56 C 242.127,37.56 240.252,39.31 240.002,38.685 C 239.752,38.06 239.002,20.06 229.752,11.935 C 229.752,11.935 234.877,16.185 236.627,19.435 z M 231.002,57.435 L 226.502,47.56 L 217.377,48.81 L 217.002,59.685 L 227.502,59.435 C 221.752,62.685 213.752,60.56 213.752,60.56 L 216.252,47.31 L 226.627,45.935 L 232.627,55.685 L 231.002,57.435 z M 248.377,48.185 C 248.127,50.685 246.752,54.685 233.627,60.06 C 233.627,60.06 247.002,52.435 246.877,48.685 C 246.752,44.935 244.377,44.56 245.252,42.06 C 245.252,42.06 248.627,45.685 248.377,48.185 z "
     style="fill:#c4c4c4" /><path
     id="path27"
     d="M 170.127,55.06 L 176.502,23.935 L 167.252,19.31 L 178.252,22.81 C 178.252,22.81 187.377,14.435 200.377,11.435 C 213.377,8.435 224.127,7.185 231.627,15.81 C 231.627,15.81 222.002,8.81 211.252,11.31 C 200.502,13.81 183.502,21.06 181.002,25.685 C 178.502,30.31 175.627,56.31 175.627,56.31 L 180.627,56.935 L 180.252,58.81 C 180.252,58.81 173.502,57.935 170.127,55.06 z "
     style="fill:#6d6d6d" /><path
     id="path29"
     d="M 196.877,48.31 L 197.877,60.685 C 197.877,60.685 205.252,61.685 213.002,59.935 L 199.877,58.935 L 198.877,49.56 L 196.877,48.31 z "
     style="fill:#6d6d6d" /><path
     id="path31"
     d="M 232.627,55.685 C 232.627,55.685 238.377,53.81 240.627,51.685 L 240.502,42.56 L 242.127,39.435 L 240.127,39.435 L 238.252,42.56 L 239.002,51.06 C 239.002,51.06 233.127,55.81 232.627,55.685 z "
     style="fill:#6d6d6d" /><path
     id="path33"
     d="M 223.377,48.435 L 226.502,48.06 L 230.877,58.06 C 230.877,58.06 223.627,59.935 219.752,59.81 C 219.752,59.81 227.377,57.935 227.252,56.31 C 227.127,54.685 223.377,48.435 223.377,48.435 z "
     style="fill:#6d6d6d" /><path
     id="path35"
     d="M 157.502,50.685 C 157.502,50.685 165.877,57.31 169.377,57.935 C 169.377,57.935 159.877,58.685 157.502,50.685 z "
     style="fill:#6d6d6d" /><path
     id="path37"
     d="M 177.752,13.685 C 177.752,13.685 178.252,15.06 179.627,14.56 C 181.002,14.06 188.853,9.283 195.752,7.435 C 202.752,5.56 214.502,5.935 214.502,5.935 C 214.502,5.935 195.877,0.06 177.752,13.685 z "
     style="fill:#6d6d6d" /><path
     id="path117"
     d="M 243.502,37.435 C 243.502,37.435 242.377,24.31 235.127,15.56 C 227.877,6.81 217.002,2.435 213.127,1.685 C 209.252,0.935 184.002,-2.44 165.877,17.435 L 157.377,46.81 C 157.377,46.81 138.627,56.81 141.252,60.81 C 143.877,64.81 152.127,72.06 158.877,72.31 C 165.627,72.56 189.877,71.06 211.752,67.06 C 233.627,63.06 247.377,56.56 249.127,50.81 C 250.877,45.06 244.127,37.935 243.502,37.435 z "
     style="fill:none;stroke:#6d6d6d;stroke-width:2" /></g>
<g
   id="g2280"
   transform="translate(-2.3844877e-5,1.2705418e-4)"><path
     id="path3"
     d="M 59.252,67.935 C 59.252,67.935 79.502,70.06 84.627,69.685 C 89.752,69.31 100.752,65.81 103.627,63.435 L 103.502,51.685 L 59.252,67.935 z "
     style="fill:#303030" /><path
     id="path5"
     d="M 103.502,37.435 C 103.502,37.435 102.377,24.31 95.127,15.56 C 87.877,6.81 77.002,2.435 73.127,1.685 C 69.252,0.935 44.002,-2.44 25.877,17.435 L 17.377,46.81 C 17.377,46.81 -1.373,56.81 1.252,60.81 C 3.877,64.81 12.127,72.06 18.877,72.31 C 25.627,72.56 49.877,71.06 71.752,67.06 C 93.627,63.06 107.377,56.56 109.127,50.81 C 110.877,45.06 104.127,37.935 103.502,37.435 z "
     style="fill:#e23d28" /><path
     id="path7"
     d="M 103.502,37.435 C 103.502,37.435 102.377,24.31 95.127,15.56 C 87.877,6.81 77.002,2.435 73.127,1.685 C 69.252,0.935 44.002,-2.44 25.877,17.435 L 17.377,46.81 C 17.377,46.81 -1.373,56.81 1.252,60.81 C 3.877,64.81 12.127,72.06 18.877,72.31 C 25.627,72.56 49.877,71.06 71.752,67.06 C 93.627,63.06 107.377,56.56 109.127,50.81 C 110.877,45.06 104.127,37.935 103.502,37.435 z M 10.002,67.435 C 8.377,66.685 3.127,61.435 3.377,59.06 C 3.627,56.685 13.752,50.31 13.752,50.31 C 13.752,50.31 9.752,55.935 10.502,61.685 C 11.252,67.435 15.502,69.685 15.502,69.685 C 15.502,69.685 11.627,68.185 10.002,67.435 z M 19.002,44.31 C 19.252,42.435 25.877,19.435 25.877,19.435 L 26.877,20.685 C 26.877,20.685 20.377,45.435 20.377,48.31 C 20.377,48.31 18.752,46.185 19.002,44.31 z M 17.502,49.935 L 30.627,56.31 C 30.627,56.31 21.752,56.435 17.502,49.935 z M 27.127,17.56 C 41.877,1.81 55.502,4.935 55.502,4.935 C 46.752,6.06 37.877,13.185 37.502,14.185 C 37.127,15.185 42.252,15.935 42.252,15.935 L 47.877,15.06 C 46.252,15.56 37.627,21.935 37.627,21.935 L 27.127,17.56 z M 43.127,62.06 L 40.877,60.31 L 45.127,46.56 L 57.002,46.935 L 56.877,48.31 L 46.377,48.685 L 43.377,60.185 L 56.252,61.31 L 57.752,62.81 L 43.127,62.06 z M 62.502,37.685 C 51.502,42.435 46.502,30.685 47.002,28.935 C 47.502,27.185 49.502,22.935 55.252,20.31 C 55.252,20.31 62.252,19.31 65.002,21.935 C 67.752,24.56 73.502,32.935 62.502,37.685 z M 96.627,19.435 C 98.377,22.685 102.127,37.56 102.127,37.56 C 102.127,37.56 100.252,39.31 100.002,38.685 C 99.752,38.06 99.002,20.06 89.752,11.935 C 89.752,11.935 94.877,16.185 96.627,19.435 z M 91.002,57.435 L 86.502,47.56 L 77.377,48.81 L 77.002,59.685 L 87.502,59.435 C 81.752,62.685 73.752,60.56 73.752,60.56 L 76.252,47.31 L 86.627,45.935 L 92.627,55.685 L 91.002,57.435 z M 108.377,48.185 C 108.127,50.685 106.752,54.685 93.627,60.06 C 93.627,60.06 107.002,52.435 106.877,48.685 C 106.752,44.935 104.377,44.56 105.252,42.06 C 105.252,42.06 108.627,45.685 108.377,48.185 z "
     style="fill:#b7271c" /><path
     id="path9"
     d="M 30.127,55.06 L 36.502,23.935 L 27.252,19.31 L 38.252,22.81 C 38.252,22.81 47.377,14.435 60.377,11.435 C 73.377,8.435 84.127,7.185 91.627,15.81 C 91.627,15.81 82.002,8.81 71.252,11.31 C 60.502,13.81 43.502,21.06 41.002,25.685 C 38.502,30.31 35.627,56.31 35.627,56.31 L 40.627,56.935 L 40.252,58.81 C 40.252,58.81 33.502,57.935 30.127,55.06 z "
     style="fill:#7c0b05" /><path
     id="path11"
     d="M 56.877,48.31 L 57.877,60.685 C 57.877,60.685 65.252,61.685 73.002,59.935 L 59.877,58.935 L 58.877,49.56 L 56.877,48.31 z "
     style="fill:#7c0b05" /><path
     id="path13"
     d="M 92.627,55.685 C 92.627,55.685 98.377,53.81 100.627,51.685 L 100.502,42.56 L 102.127,39.435 L 100.127,39.435 L 98.252,42.56 L 99.002,51.06 C 99.002,51.06 93.127,55.81 92.627,55.685 z "
     style="fill:#7c0b05" /><path
     id="path15"
     d="M 83.377,48.435 L 86.502,48.06 L 90.877,58.06 C 90.877,58.06 83.627,59.935 79.752,59.81 C 79.752,59.81 87.377,57.935 87.252,56.31 C 87.127,54.685 83.377,48.435 83.377,48.435 z "
     style="fill:#7c0b05" /><path
     id="path17"
     d="M 17.502,50.685 C 17.502,50.685 25.877,57.31 29.377,57.935 C 29.377,57.935 19.877,58.685 17.502,50.685 z "
     style="fill:#7c0b05" /><path
     id="path19"
     d="M 37.752,13.685 C 37.752,13.685 38.252,15.06 39.627,14.56 C 41.002,14.06 48.853,9.283 55.752,7.435 C 62.752,5.56 74.502,5.935 74.502,5.935 C 74.502,5.935 55.877,0.06 37.752,13.685 z "
     style="fill:#7c0b05" /><path
     id="path119"
     d="M 103.502,37.435 C 103.502,37.435 102.377,24.31 95.127,15.56 C 87.877,6.81 77.002,2.435 73.127,1.685 C 69.252,0.935 44.002,-2.44 25.877,17.435 L 17.377,46.81 C 17.377,46.81 -1.373,56.81 1.252,60.81 C 3.877,64.81 12.127,72.06 18.877,72.31 C 25.627,72.56 49.877,71.06 71.752,67.06 C 93.627,63.06 107.377,56.56 109.127,50.81 C 110.877,45.06 104.127,37.935 103.502,37.435 z "
     style="fill:none;stroke:#7c0b05;stroke-width:2" /></g>
<g
   id="g2341"
   transform="translate(-2.3844877e-5,-74.326382)"><path
     id="path77"
     d="M 59.252,288.935 C 59.252,288.935 79.502,291.06 84.627,290.685 C 89.752,290.31 100.752,286.81 103.627,284.435 L 103.502,272.685 L 59.252,288.935 z "
     style="fill:#303030" /><path
     id="path79"
     d="M 103.502,258.435 C 103.502,258.435 102.377,245.31 95.127,236.56 C 87.877,227.81 77.002,223.435 73.127,222.685 C 69.252,221.935 44.002,218.56 25.877,238.435 L 17.377,267.81 C 17.377,267.81 -1.373,277.81 1.252,281.81 C 3.877,285.81 12.127,293.06 18.877,293.31 C 25.627,293.56 49.877,292.06 71.752,288.06 C 93.627,284.06 107.377,277.56 109.127,271.81 C 110.877,266.06 104.127,258.935 103.502,258.435 z "
     style="fill:#4660bc" /><path
     id="path81"
     d="M 103.502,258.435 C 103.502,258.435 102.377,245.31 95.127,236.56 C 87.877,227.81 77.002,223.435 73.127,222.685 C 69.252,221.935 44.002,218.56 25.877,238.435 L 17.377,267.81 C 17.377,267.81 -1.373,277.81 1.252,281.81 C 3.877,285.81 12.127,293.06 18.877,293.31 C 25.627,293.56 49.877,292.06 71.752,288.06 C 93.627,284.06 107.377,277.56 109.127,271.81 C 110.877,266.06 104.127,258.935 103.502,258.435 z M 10.002,288.435 C 8.377,287.685 3.127,282.435 3.377,280.06 C 3.627,277.685 13.752,271.31 13.752,271.31 C 13.752,271.31 9.752,276.935 10.502,282.685 C 11.252,288.435 15.502,290.685 15.502,290.685 C 15.502,290.685 11.627,289.185 10.002,288.435 z M 19.002,265.31 C 19.252,263.435 25.877,240.435 25.877,240.435 L 26.877,241.685 C 26.877,241.685 20.377,266.435 20.377,269.31 C 20.377,269.31 18.752,267.185 19.002,265.31 z M 17.502,270.935 L 30.627,277.31 C 30.627,277.31 21.752,277.435 17.502,270.935 z M 27.127,238.56 C 41.877,222.81 55.502,225.935 55.502,225.935 C 46.752,227.06 37.877,234.185 37.502,235.185 C 37.127,236.185 42.252,236.935 42.252,236.935 L 47.877,236.06 C 46.252,236.56 37.627,242.935 37.627,242.935 L 27.127,238.56 z M 43.127,283.06 L 40.877,281.31 L 45.127,267.56 L 57.002,267.935 L 56.877,269.31 L 46.377,269.685 L 43.377,281.185 L 56.252,282.31 L 57.752,283.81 L 43.127,283.06 z M 62.502,258.685 C 51.502,263.435 46.502,251.685 47.002,249.935 C 47.502,248.185 49.502,243.935 55.252,241.31 C 55.252,241.31 62.252,240.31 65.002,242.935 C 67.752,245.56 73.502,253.935 62.502,258.685 z M 96.627,240.435 C 98.377,243.685 102.127,258.56 102.127,258.56 C 102.127,258.56 100.252,260.31 100.002,259.685 C 99.752,259.06 99.002,241.06 89.752,232.935 C 89.752,232.935 94.877,237.185 96.627,240.435 z M 91.002,278.435 L 86.502,268.56 L 77.377,269.81 L 77.002,280.685 L 87.502,280.435 C 81.752,283.685 73.752,281.56 73.752,281.56 L 76.252,268.31 L 86.627,266.935 L 92.627,276.685 L 91.002,278.435 z M 108.377,269.185 C 108.127,271.685 106.752,275.685 93.627,281.06 C 93.627,281.06 107.002,273.435 106.877,269.685 C 106.752,265.935 104.377,265.56 105.252,263.06 C 105.252,263.06 108.627,266.685 108.377,269.185 z "
     style="fill:#0c1c8c" /><path
     id="path83"
     d="M 30.127,276.06 L 36.502,244.935 L 27.252,240.31 L 38.252,243.81 C 38.252,243.81 47.377,235.435 60.377,232.435 C 73.377,229.435 84.127,228.185 91.627,236.81 C 91.627,236.81 82.002,229.81 71.252,232.31 C 60.502,234.81 43.502,242.06 41.002,246.685 C 38.502,251.31 35.627,277.31 35.627,277.31 L 40.627,277.935 L 40.252,279.81 C 40.252,279.81 33.502,278.935 30.127,276.06 z "
     style="fill:#001c49" /><path
     id="path85"
     d="M 56.877,269.31 L 57.877,281.685 C 57.877,281.685 65.252,282.685 73.002,280.935 L 59.877,279.935 L 58.877,270.56 L 56.877,269.31 z "
     style="fill:#001c49" /><path
     id="path87"
     d="M 92.627,276.685 C 92.627,276.685 98.377,274.81 100.627,272.685 L 100.502,263.56 L 102.127,260.435 L 100.127,260.435 L 98.252,263.56 L 99.002,272.06 C 99.002,272.06 93.127,276.81 92.627,276.685 z "
     style="fill:#001c49" /><path
     id="path89"
     d="M 83.377,269.435 L 86.502,269.06 L 90.877,279.06 C 90.877,279.06 83.627,280.935 79.752,280.81 C 79.752,280.81 87.377,278.935 87.252,277.31 C 87.127,275.685 83.377,269.435 83.377,269.435 z "
     style="fill:#001c49" /><path
     id="path91"
     d="M 17.502,271.685 C 17.502,271.685 25.877,278.31 29.377,278.935 C 29.377,278.935 19.877,279.685 17.502,271.685 z "
     style="fill:#001c49" /><path
     id="path93"
     d="M 37.752,234.685 C 37.752,234.685 38.252,236.06 39.627,235.56 C 41.002,235.06 48.853,230.283 55.752,228.435 C 62.752,226.56 74.502,226.935 74.502,226.935 C 74.502,226.935 55.877,221.06 37.752,234.685 z "
     style="fill:#001c49" /><path
     id="path121"
     d="M 103.502,258.435 C 103.502,258.435 102.377,245.31 95.127,236.56 C 87.877,227.81 77.002,223.435 73.127,222.685 C 69.252,221.935 44.002,218.56 25.877,238.435 L 17.377,267.81 C 17.377,267.81 -1.373,277.81 1.252,281.81 C 3.877,285.81 12.127,293.06 18.877,293.31 C 25.627,293.56 49.877,292.06 71.752,288.06 C 93.627,284.06 107.377,277.56 109.127,271.81 C 110.877,266.06 104.127,258.935 103.502,258.435 z "
     style="fill:none;stroke:#001c49;stroke-width:2" /></g>
<g
   id="g2329"
   transform="translate(-29.584278,-74.326382)"><path
     id="path95"
     d="M 199.252,288.935 C 199.252,288.935 219.502,291.06 224.627,290.685 C 229.752,290.31 240.752,286.81 243.627,284.435 L 243.502,272.685 L 199.252,288.935 z "
     style="fill:#303030" /><path
     id="path97"
     d="M 243.502,258.435 C 243.502,258.435 242.377,245.31 235.127,236.56 C 227.877,227.81 217.002,223.435 213.127,222.685 C 209.252,221.935 184.002,218.56 165.877,238.435 L 157.377,267.81 C 157.377,267.81 138.627,277.81 141.252,281.81 C 143.877,285.81 152.127,293.06 158.877,293.31 C 165.627,293.56 189.877,292.06 211.752,288.06 C 233.627,284.06 247.377,277.56 249.127,271.81 C 250.877,266.06 244.127,258.935 243.502,258.435 z "
     style="fill:#ffe161" /><path
     id="path99"
     d="M 243.502,258.435 C 243.502,258.435 242.377,245.31 235.127,236.56 C 227.877,227.81 217.002,223.435 213.127,222.685 C 209.252,221.935 184.002,218.56 165.877,238.435 L 157.377,267.81 C 157.377,267.81 138.627,277.81 141.252,281.81 C 143.877,285.81 152.127,293.06 158.877,293.31 C 165.627,293.56 189.877,292.06 211.752,288.06 C 233.627,284.06 247.377,277.56 249.127,271.81 C 250.877,266.06 244.127,258.935 243.502,258.435 z M 150.002,288.435 C 148.377,287.685 143.127,282.435 143.377,280.06 C 143.627,277.685 153.752,271.31 153.752,271.31 C 153.752,271.31 149.752,276.935 150.502,282.685 C 151.252,288.435 155.502,290.685 155.502,290.685 C 155.502,290.685 151.627,289.185 150.002,288.435 z M 159.002,265.31 C 159.252,263.435 165.877,240.435 165.877,240.435 L 166.877,241.685 C 166.877,241.685 160.377,266.435 160.377,269.31 C 160.377,269.31 158.752,267.185 159.002,265.31 z M 157.502,270.935 L 170.627,277.31 C 170.627,277.31 161.752,277.435 157.502,270.935 z M 167.127,238.56 C 181.877,222.81 195.502,225.935 195.502,225.935 C 186.752,227.06 177.877,234.185 177.502,235.185 C 177.127,236.185 182.252,236.935 182.252,236.935 L 187.877,236.06 C 186.252,236.56 177.627,242.935 177.627,242.935 L 167.127,238.56 z M 183.127,283.06 L 180.877,281.31 L 185.127,267.56 L 197.002,267.935 L 196.877,269.31 L 186.377,269.685 L 183.377,281.185 L 196.252,282.31 L 197.752,283.81 L 183.127,283.06 z M 202.502,258.685 C 191.502,263.435 186.502,251.685 187.002,249.935 C 187.502,248.185 189.502,243.935 195.252,241.31 C 195.252,241.31 202.252,240.31 205.002,242.935 C 207.752,245.56 213.502,253.935 202.502,258.685 z M 236.627,240.435 C 238.377,243.685 242.127,258.56 242.127,258.56 C 242.127,258.56 240.252,260.31 240.002,259.685 C 239.752,259.06 239.002,241.06 229.752,232.935 C 229.752,232.935 234.877,237.185 236.627,240.435 z M 231.002,278.435 L 226.502,268.56 L 217.377,269.81 L 217.002,280.685 L 227.502,280.435 C 221.752,283.685 213.752,281.56 213.752,281.56 L 216.252,268.31 L 226.627,266.935 L 232.627,276.685 L 231.002,278.435 z M 248.377,269.185 C 248.127,271.685 246.752,275.685 233.627,281.06 C 233.627,281.06 247.002,273.435 246.877,269.685 C 246.752,265.935 244.377,265.56 245.252,263.06 C 245.252,263.06 248.627,266.685 248.377,269.185 z "
     style="fill:#fcb514" /><path
     id="path101"
     d="M 170.127,276.06 L 176.502,244.935 L 167.252,240.31 L 178.252,243.81 C 178.252,243.81 187.377,235.435 200.377,232.435 C 213.377,229.435 224.127,228.185 231.627,236.81 C 231.627,236.81 222.002,229.81 211.252,232.31 C 200.502,234.81 183.502,242.06 181.002,246.685 C 178.502,251.31 175.627,277.31 175.627,277.31 L 180.627,277.935 L 180.252,279.81 C 180.252,279.81 173.502,278.935 170.127,276.06 z "
     style="fill:#b27a0b" /><path
     id="path103"
     d="M 196.877,269.31 L 197.877,281.685 C 197.877,281.685 205.252,282.685 213.002,280.935 L 199.877,279.935 L 198.877,270.56 L 196.877,269.31 z "
     style="fill:#b27a0b" /><path
     id="path105"
     d="M 232.627,276.685 C 232.627,276.685 238.377,274.81 240.627,272.685 L 240.502,263.56 L 242.127,260.435 L 240.127,260.435 L 238.252,263.56 L 239.002,272.06 C 239.002,272.06 233.127,276.81 232.627,276.685 z "
     style="fill:#b27a0b" /><path
     id="path107"
     d="M 223.377,269.435 L 226.502,269.06 L 230.877,279.06 C 230.877,279.06 223.627,280.935 219.752,280.81 C 219.752,280.81 227.377,278.935 227.252,277.31 C 227.127,275.685 223.377,269.435 223.377,269.435 z "
     style="fill:#b27a0b" /><path
     id="path109"
     d="M 157.502,271.685 C 157.502,271.685 165.877,278.31 169.377,278.935 C 169.377,278.935 159.877,279.685 157.502,271.685 z "
     style="fill:#b27a0b" /><path
     id="path111"
     d="M 177.752,234.685 C 177.752,234.685 178.252,236.06 179.627,235.56 C 181.002,235.06 188.853,230.283 195.752,228.435 C 202.752,226.56 214.502,226.935 214.502,226.935 C 214.502,226.935 195.877,221.06 177.752,234.685 z "
     style="fill:#b27a0b" /><path
     id="path123"
     d="M 243.502,258.435 C 243.502,258.435 242.377,245.31 235.127,236.56 C 227.877,227.81 217.002,223.435 213.127,222.685 C 209.252,221.935 184.002,218.56 165.877,238.435 L 157.377,267.81 C 157.377,267.81 138.627,277.81 141.252,281.81 C 143.877,285.81 152.127,293.06 158.877,293.31 C 165.627,293.56 189.877,292.06 211.752,288.06 C 233.627,284.06 247.377,277.56 249.127,271.81 C 250.877,266.06 244.127,258.935 243.502,258.435 z "
     style="fill:none;stroke:#b27a0b;stroke-width:2" /></g>
</svg>